<?xml version="1.0" encoding="UTF-8" standalone="no"?>
<!DOCTYPE svg PUBLIC "-//W3C//DTD SVG 1.1//EN" "http://www.w3.org/Graphics/SVG/1.1/DTD/svg11.dtd">
<svg width="100%" height="100%" viewBox="0 0 2400 2400" version="1.1" xmlns="http://www.w3.org/2000/svg" xmlns:xlink="http://www.w3.org/1999/xlink" xml:space="preserve" xmlns:serif="http://www.serif.com/" style="fill-rule:evenodd;clip-rule:evenodd;stroke-linejoin:round;stroke-miterlimit:2;">
    <g transform="matrix(0.681035,0,0,0.681035,-131.978,460.327)">
        <path d="M1860.88,977.893C1679.17,979.934 1636.29,1051.39 1556.67,1186.14C1462.75,1347.43 1381.08,1486.27 1287.17,1594.48C1352.5,1672.06 1458.67,1776.18 1568.92,1776.18C1660.79,1776.18 1791.46,1708.81 1797.58,1547.52L1848.63,1547.52C1844.54,1723.1 1715.92,1839.48 1560.75,1839.48C1462.75,1839.48 1342.29,1806.81 1201.42,1684.31C1125.88,1751.68 1005.42,1839.48 831.876,1839.48C629.751,1839.48 462.334,1710.85 462.334,1533.23C462.334,1422.98 515.417,1367.85 607.292,1273.93L793.084,1075.89C721.626,894.184 709.376,747.184 709.376,661.434C709.376,445.018 860.459,332.726 987.042,332.726C1132,332.726 1164.67,502.184 1164.67,596.101C1164.67,730.851 1025.83,886.018 915.584,1008.52C1005.42,1243.31 1227.96,1523.02 1254.5,1553.64C1342.29,1445.43 1434.17,1306.6 1546.46,1108.56C1548.5,1102.43 1558.71,1088.14 1558.71,1067.73C1558.71,1016.68 1507.67,977.893 1413.75,977.893L1413.75,914.601C1468.88,918.684 1640.38,920.726 1662.83,920.726L1860.88,914.601L1860.88,977.893ZM1113.63,594.059C1113.63,594.059 1113.63,377.643 991.126,377.643C919.667,377.643 838.001,442.976 838.001,614.476C838.001,677.768 844.126,796.184 899.251,959.518C948.251,906.434 1113.63,728.809 1113.63,594.059ZM1162.63,1645.52C1087.08,1569.98 1013.58,1463.81 974.792,1406.64C887.001,1280.06 856.376,1218.81 811.459,1122.85C701.209,1229.02 631.792,1302.52 631.792,1467.89C631.792,1578.14 678.751,1776.18 848.209,1776.18C905.376,1776.18 1031.96,1761.89 1162.63,1645.52ZM3449.29,977.893C3267.58,979.934 3224.71,1051.39 3145.08,1186.14C3051.17,1347.43 2969.5,1486.27 2875.58,1594.48C2940.92,1672.06 3047.08,1776.18 3157.33,1776.18C3249.21,1776.18 3379.88,1708.81 3386,1547.52L3437.04,1547.52C3432.96,1723.1 3304.33,1839.48 3149.17,1839.48C3051.17,1839.48 2930.71,1806.81 2789.83,1684.31C2714.29,1751.68 2593.83,1839.48 2420.29,1839.48C2218.17,1839.48 2050.75,1710.85 2050.75,1533.23C2050.75,1422.98 2103.83,1367.85 2195.71,1273.93L2381.5,1075.89C2310.04,894.184 2297.79,747.184 2297.79,661.434C2297.79,445.018 2448.88,332.726 2575.46,332.726C2720.42,332.726 2753.08,502.184 2753.08,596.101C2753.08,730.851 2614.25,886.018 2504,1008.52C2593.83,1243.31 2816.38,1523.02 2842.92,1553.64C2930.71,1445.43 3022.58,1306.6 3134.88,1108.56C3136.92,1102.43 3147.13,1088.14 3147.13,1067.73C3147.13,1016.68 3096.08,977.893 3002.17,977.893L3002.17,914.601C3057.29,918.684 3228.79,920.726 3251.25,920.726L3449.29,914.601L3449.29,977.893ZM2702.04,594.059C2702.04,594.059 2702.04,377.643 2579.54,377.643C2508.08,377.643 2426.42,442.976 2426.42,614.476C2426.42,677.768 2432.54,796.184 2487.67,959.518C2536.67,906.434 2702.04,728.809 2702.04,594.059ZM2751.04,1645.52C2675.5,1569.98 2602,1463.81 2563.21,1406.64C2475.42,1280.06 2444.79,1218.81 2399.88,1122.85C2289.63,1229.02 2220.21,1302.52 2220.21,1467.89C2220.21,1578.14 2267.17,1776.18 2436.63,1776.18C2493.79,1776.18 2620.38,1761.89 2751.04,1645.52Z" style="fill:rgb(26,26,26);"/>
        <path d="M1410.21,1100.2C1344.27,1098.33 1291.39,1044.29 1291.39,977.893L1291.39,914.601C1291.39,880.578 1305.55,848.091 1330.48,824.939C1355.41,801.786 1388.86,790.059 1422.79,792.573C1474.63,796.413 1633.3,798.273 1661.05,798.36L1857.09,792.297C1890.19,791.273 1922.28,803.704 1946.05,826.75C1969.82,849.797 1983.24,881.492 1983.24,914.601L1983.24,977.893C1983.24,1044.94 1929.29,1099.49 1862.25,1100.25C1816.43,1100.76 1783.98,1105.16 1759.08,1119.43C1716.37,1143.91 1696.61,1189.8 1662.22,1248.04C1587.7,1376.02 1520.12,1490.22 1448.94,1587.32C1460.05,1597.35 1471.69,1607.01 1483.78,1615.91C1510.46,1635.57 1538.59,1653.82 1568.92,1653.82C1612.59,1653.82 1672.4,1619.54 1675.31,1542.87C1677.81,1477.15 1731.81,1425.15 1797.58,1425.15L1848.63,1425.15C1880.72,1425.15 1911.49,1437.76 1934.35,1460.2C1952.09,1359.37 2009.55,1289.32 2107.34,1189.29L2240.9,1046.92C2185.41,879.639 2175.43,744.533 2175.43,661.434C2175.43,358.201 2398.1,210.363 2575.46,210.363C2702.43,210.363 2782.64,280.939 2828.69,375.722C2863.44,447.242 2875.45,534.027 2875.45,596.101C2875.45,669.618 2848.48,748.671 2802.5,826.465C2760.93,896.786 2703.55,967.234 2647.03,1031.86C2701.1,1146.78 2779.62,1265.38 2841.44,1351.1C2890.12,1280.68 2941.63,1198.52 2998.63,1100.2C2932.68,1098.33 2879.8,1044.29 2879.8,977.893L2879.8,914.601C2879.8,880.578 2893.97,848.091 2918.9,824.939C2943.83,801.786 2977.28,790.059 3011.21,792.573C3063.05,796.413 3221.72,798.273 3249.46,798.36L3445.51,792.297C3478.6,791.273 3510.7,803.704 3534.47,826.75C3558.24,849.797 3571.66,881.492 3571.66,914.601L3571.66,977.893C3571.66,1044.94 3517.71,1099.49 3450.67,1100.25C3404.84,1100.76 3372.39,1105.16 3347.5,1119.43C3304.79,1143.91 3285.02,1189.8 3250.64,1248.04C3176.11,1376.02 3108.54,1490.22 3037.36,1587.32C3048.47,1597.35 3060.11,1607.01 3072.2,1615.91C3098.88,1635.57 3127.01,1653.82 3157.33,1653.82C3201.01,1653.82 3260.82,1619.54 3263.73,1542.87C3266.22,1477.15 3320.23,1425.15 3386,1425.15L3437.04,1425.15C3469.99,1425.15 3501.54,1438.44 3524.57,1462.01C3547.59,1485.57 3560.14,1517.43 3559.37,1550.36C3553.59,1799.18 3369.05,1961.84 3149.17,1961.84C3048.93,1961.84 2928.23,1936.56 2790.52,1840.18C2700.38,1903.75 2578.04,1961.84 2420.29,1961.84C2200.3,1961.84 2017.25,1841.87 1953.01,1670.11C1901,1850.07 1743.02,1961.84 1560.75,1961.84C1460.51,1961.84 1339.81,1936.56 1202.11,1840.18C1111.96,1903.75 989.621,1961.84 831.876,1961.84C557.107,1961.84 339.971,1774.69 339.971,1533.23C339.971,1389.24 399.235,1311.72 518.92,1189.29L652.481,1046.92C596.989,879.639 587.013,744.533 587.013,661.434C587.013,358.201 809.68,210.363 987.042,210.363C1114.02,210.363 1194.23,280.939 1240.28,375.722C1275.02,447.242 1287.03,534.027 1287.03,596.101C1287.03,669.618 1260.06,748.671 1214.08,826.465C1172.52,896.786 1115.13,967.234 1058.61,1031.86C1112.68,1146.78 1191.2,1265.38 1253.02,1351.1C1301.7,1280.68 1353.21,1198.52 1410.21,1100.2ZM1659.65,1155.03C1660.95,1152.02 1661.84,1149.37 1662.54,1147.25C1661.67,1149.88 1660.7,1152.47 1659.65,1155.03ZM3449.29,977.893L3449.29,914.601L3251.25,920.726C3228.79,920.726 3057.29,918.684 3002.17,914.601L3002.17,977.893C3096.08,977.893 3147.13,1016.68 3147.13,1067.73C3147.13,1088.14 3136.92,1102.43 3134.88,1108.56C3022.58,1306.6 2930.71,1445.43 2842.92,1553.64C2816.38,1523.02 2593.83,1243.31 2504,1008.52C2614.25,886.018 2753.08,730.851 2753.08,596.101C2753.08,502.184 2720.42,332.726 2575.46,332.726C2448.88,332.726 2297.79,445.018 2297.79,661.434C2297.79,747.184 2310.04,894.184 2381.5,1075.89L2195.71,1273.93C2103.83,1367.85 2050.75,1422.98 2050.75,1533.23C2050.75,1710.85 2218.17,1839.48 2420.29,1839.48C2593.83,1839.48 2714.29,1751.68 2789.83,1684.31C2930.71,1806.81 3051.17,1839.48 3149.17,1839.48C3304.33,1839.48 3432.96,1723.1 3437.04,1547.52L3386,1547.52C3379.88,1708.81 3249.21,1776.18 3157.33,1776.18C3047.08,1776.18 2940.92,1672.06 2875.58,1594.48C2969.5,1486.27 3051.17,1347.43 3145.08,1186.14C3224.71,1051.39 3267.58,979.934 3449.29,977.893ZM2702.04,594.059C2702.04,728.809 2536.67,906.434 2487.67,959.518C2432.54,796.184 2426.42,677.768 2426.42,614.476C2426.42,442.976 2508.08,377.643 2579.54,377.643C2702.04,377.643 2702.04,594.059 2702.04,594.059ZM2566.83,516.234C2554.44,539.486 2548.78,572.013 2548.78,614.476C2548.78,631.019 2549.3,651.8 2551.28,676.594C2567.17,648.543 2579.68,620.485 2579.68,594.059C2579.68,594.038 2579.47,569.744 2573.96,540.568C2572.72,534.009 2569.85,524.885 2566.83,516.234ZM2751.04,1645.52C2620.38,1761.89 2493.79,1776.18 2436.63,1776.18C2267.17,1776.18 2220.21,1578.14 2220.21,1467.89C2220.21,1302.52 2289.63,1229.02 2399.88,1122.85C2444.79,1218.81 2475.42,1280.06 2563.21,1406.64C2602,1463.81 2675.5,1569.98 2751.04,1645.52ZM2568.28,1621.95C2524.79,1566.74 2487.01,1512.26 2462.33,1475.89C2424.13,1420.8 2396.13,1377.35 2373.09,1338.23C2353.69,1373.22 2342.57,1413.69 2342.57,1467.89C2342.57,1507.04 2350.05,1561.97 2373.43,1606.92C2386.03,1631.16 2404.17,1653.82 2436.63,1653.82C2463.85,1653.82 2511.8,1648.48 2568.28,1621.95ZM1860.88,977.893L1860.88,914.601L1662.83,920.726C1640.38,920.726 1468.88,918.684 1413.75,914.601L1413.75,977.893C1507.67,977.893 1558.71,1016.68 1558.71,1067.73C1558.71,1088.14 1548.5,1102.43 1546.46,1108.56C1434.17,1306.6 1342.29,1445.43 1254.5,1553.64C1227.96,1523.02 1005.42,1243.31 915.584,1008.52C1025.83,886.018 1164.67,730.851 1164.67,596.101C1164.67,502.184 1132,332.726 987.042,332.726C860.459,332.726 709.376,445.018 709.376,661.434C709.376,747.184 721.626,894.184 793.084,1075.89L607.292,1273.93C515.417,1367.85 462.334,1422.98 462.334,1533.23C462.334,1710.85 629.751,1839.48 831.876,1839.48C1005.42,1839.48 1125.88,1751.68 1201.42,1684.31C1342.29,1806.81 1462.75,1839.48 1560.75,1839.48C1715.92,1839.48 1844.54,1723.1 1848.63,1547.52L1797.58,1547.52C1791.46,1708.81 1660.79,1776.18 1568.92,1776.18C1458.67,1776.18 1352.5,1672.06 1287.17,1594.48C1381.08,1486.27 1462.75,1347.43 1556.67,1186.14C1636.29,1051.39 1679.17,979.934 1860.88,977.893ZM1113.63,594.059C1113.63,728.809 948.251,906.434 899.251,959.518C844.126,796.184 838.001,677.768 838.001,614.476C838.001,442.976 919.667,377.643 991.126,377.643C1113.63,377.643 1113.63,594.059 1113.63,594.059ZM978.411,516.234C966.02,539.486 960.364,572.013 960.364,614.476C960.364,631.019 960.879,651.8 962.858,676.594C978.754,648.543 991.263,620.485 991.263,594.059C991.263,594.038 991.05,569.744 985.545,540.568C984.307,534.009 981.436,524.885 978.411,516.234ZM1162.63,1645.52C1031.96,1761.89 905.376,1776.18 848.209,1776.18C678.751,1776.18 631.792,1578.14 631.792,1467.89C631.792,1302.52 701.209,1229.02 811.459,1122.85C856.376,1218.81 887.001,1280.06 974.792,1406.64C1013.58,1463.81 1087.08,1569.98 1162.63,1645.52ZM979.867,1621.95C936.374,1566.74 898.594,1512.26 873.91,1475.89C835.71,1420.8 807.709,1377.35 784.673,1338.23C765.275,1373.22 754.155,1413.69 754.155,1467.89C754.155,1507.04 761.629,1561.97 785.009,1606.92C797.619,1631.16 815.756,1653.82 848.209,1653.82C875.432,1653.82 923.384,1648.48 979.867,1621.95ZM1439.74,1048.01L1440.36,1046.56C1440.15,1047.03 1439.94,1047.51 1439.74,1048.01ZM3028.16,1048.01L3028.78,1046.56C3028.56,1047.03 3028.36,1047.51 3028.16,1048.01ZM3248.07,1155.03C3249.37,1152.02 3250.26,1149.37 3250.96,1147.25C3250.08,1149.88 3249.12,1152.47 3248.07,1155.03Z" style="fill:white;"/>
    </g>
</svg>
