<?xml version="1.0" encoding="UTF-8" standalone="no"?>
<!DOCTYPE svg PUBLIC "-//W3C//DTD SVG 1.1//EN" "http://www.w3.org/Graphics/SVG/1.1/DTD/svg11.dtd">
<svg width="100%" height="100%" viewBox="0 0 2400 2400" version="1.1" xmlns="http://www.w3.org/2000/svg" xmlns:xlink="http://www.w3.org/1999/xlink" xml:space="preserve" xmlns:serif="http://www.serif.com/" style="fill-rule:evenodd;clip-rule:evenodd;stroke-linejoin:round;stroke-miterlimit:2;">
    <g transform="matrix(1,0,0,1,-517.899,-400.296)">
        <path d="M2621.34,1600.3C2621.34,1577.84 2602.96,1559.46 2580.5,1559.46L1016.59,1559.46C1077.84,1518.63 1130.92,1469.63 1175.84,1412.46C1243.21,1326.71 1290.17,1226.67 1310.59,1118.46C1310.59,1116.42 1312.63,1112.34 1312.63,1110.3C1312.63,1087.84 1294.25,1069.46 1271.8,1069.46C1251.38,1069.46 1235.05,1083.75 1230.96,1102.13C1212.59,1198.09 1169.71,1287.92 1112.55,1361.42C1039.05,1453.3 949.212,1534.96 832.837,1573.75C822.629,1577.84 814.462,1588.05 814.462,1600.3C814.462,1612.55 822.629,1622.75 832.837,1626.84C949.212,1665.63 1039.05,1747.3 1112.55,1839.17C1169.71,1912.67 1212.59,2002.5 1230.96,2098.46C1235.05,2116.84 1251.38,2131.13 1271.8,2131.13C1294.25,2131.13 1312.63,2112.75 1312.63,2090.3C1312.63,2088.25 1310.59,2084.17 1310.59,2082.13C1290.17,1973.92 1243.21,1873.88 1175.84,1788.13C1130.92,1730.96 1077.84,1681.96 1016.59,1641.13L2580.5,1641.13C2602.96,1641.13 2621.34,1622.75 2621.34,1600.3Z" style="fill:rgb(26,26,26);fill-rule:nonzero;"/>
        <path d="M1393.82,2078.1C1393.82,2078.1 1393.82,2078.1 1393.82,2078.11L1395.96,2090.3L1393.41,2115.31L1386.11,2138.74L1374.63,2159.81L1359.56,2178.06L1341.31,2193.14L1320.24,2204.61L1296.81,2211.91L1271.8,2214.46L1228.85,2206.91L1192.36,2186.08L1165.3,2155.12L1149.61,2116.54C1149.43,2115.74 1149.27,2114.94 1149.12,2114.14C1133.29,2031.49 1096.29,1954.15 1047.11,1890.77C983.551,1811.42 907.039,1739.41 806.485,1705.89C804.936,1705.38 803.403,1704.82 801.888,1704.21L774.3,1688.32L752.265,1665.42L736.933,1635.66L731.129,1600.3L736.933,1564.93L752.265,1535.17L774.3,1512.28L801.888,1496.38C803.403,1495.78 804.936,1495.21 806.485,1494.7C907.039,1461.18 983.551,1389.17 1047.12,1309.8C1096.3,1246.43 1133.29,1169.1 1149.12,1086.46C1149.27,1085.65 1149.43,1084.85 1149.61,1084.05L1165.3,1045.47L1192.36,1014.51L1228.85,993.683L1271.8,986.129L1296.81,988.677L1320.24,995.986L1341.31,1007.46L1359.56,1022.53L1374.63,1040.79L1386.11,1061.86L1393.41,1085.28L1395.96,1110.3L1393.82,1122.49C1393.82,1122.49 1393.82,1122.49 1393.82,1122.49L1390.57,1141C1392.73,1134.35 1393.57,1127.78 1393.82,1122.49C1393.64,1126.32 1393.19,1130.14 1392.48,1133.91C1369.56,1255.36 1316.98,1367.7 1241.36,1463.95C1238.14,1468.05 1234.89,1472.11 1231.59,1476.13L2580.5,1476.13L2605.52,1478.68L2628.94,1485.99L2650.01,1497.46L2668.27,1512.53L2683.34,1530.79L2694.81,1551.86L2702.12,1575.28L2704.67,1600.3L2702.12,1625.31L2694.81,1648.74L2683.34,1669.81L2668.27,1688.06L2650.01,1703.13L2628.94,1714.61L2605.52,1721.91L2580.5,1724.46L1231.59,1724.46C1234.89,1728.49 1238.14,1732.55 1241.36,1736.64C1316.98,1832.89 1369.56,1945.23 1392.48,2066.68C1393.19,2070.45 1393.64,2074.27 1393.82,2078.1C1393.57,2072.81 1392.73,2066.24 1390.57,2059.59L1393.82,2078.1ZM1229.39,2094.32C1229.65,2099.61 1230.48,2106.18 1232.64,2112.84L1229.39,2094.32ZM2621.34,1600.3C2621.34,1577.84 2602.96,1559.46 2580.5,1559.46L1016.59,1559.46C1077.84,1518.63 1130.92,1469.63 1175.84,1412.46C1243.21,1326.71 1290.17,1226.67 1310.59,1118.46C1310.59,1116.42 1312.63,1112.34 1312.63,1110.3C1312.63,1087.84 1294.25,1069.46 1271.8,1069.46C1251.38,1069.46 1235.05,1083.75 1230.96,1102.13C1212.59,1198.09 1169.71,1287.92 1112.55,1361.42C1039.05,1453.3 949.212,1534.96 832.837,1573.75C822.629,1577.84 814.462,1588.05 814.462,1600.3C814.462,1612.55 822.629,1622.75 832.837,1626.84C949.212,1665.63 1039.05,1747.3 1112.55,1839.17C1169.71,1912.67 1212.59,2002.5 1230.96,2098.46C1235.05,2116.84 1251.38,2131.13 1271.8,2131.13C1294.25,2131.13 1312.63,2112.75 1312.63,2090.3C1312.63,2088.25 1310.59,2084.17 1310.59,2082.13C1290.17,1973.92 1243.21,1873.88 1175.84,1788.13C1130.92,1730.96 1077.84,1681.96 1016.59,1641.13L2580.5,1641.13C2602.96,1641.13 2621.34,1622.75 2621.34,1600.3ZM1229.39,1106.27L1232.64,1087.76C1230.48,1094.41 1229.65,1100.98 1229.39,1106.27Z" style="fill:white;"/>
    </g>
</svg>
