<?xml version="1.0" encoding="UTF-8" standalone="no"?>
<!DOCTYPE svg PUBLIC "-//W3C//DTD SVG 1.1//EN" "http://www.w3.org/Graphics/SVG/1.1/DTD/svg11.dtd">
<svg width="100%" height="100%" viewBox="0 0 2400 2400" version="1.1" xmlns="http://www.w3.org/2000/svg" xmlns:xlink="http://www.w3.org/1999/xlink" xml:space="preserve" xmlns:serif="http://www.serif.com/" style="fill-rule:evenodd;clip-rule:evenodd;stroke-linejoin:round;stroke-miterlimit:2;">
    <path d="M1902.72,1225.28C1902.72,1202.82 1884.35,1184.45 1861.89,1184.45L583.807,1184.45C561.348,1184.45 542.973,1202.82 542.973,1225.28C542.973,1247.74 561.348,1266.12 583.807,1266.12L1861.89,1266.12C1884.35,1266.12 1902.72,1247.74 1902.72,1225.28ZM1331.06,814.908C1331.06,755.699 1282.06,706.699 1222.85,706.699C1163.64,706.699 1114.64,755.699 1114.64,814.908C1114.64,874.116 1163.64,923.116 1222.85,923.116C1282.06,923.116 1331.06,874.116 1331.06,814.908ZM1331.06,1635.66C1331.06,1576.45 1282.06,1527.45 1222.85,1527.45C1163.64,1527.45 1114.64,1576.45 1114.64,1635.66C1114.64,1694.87 1163.64,1743.87 1222.85,1743.87C1282.06,1743.87 1331.06,1694.87 1331.06,1635.66Z" style="fill:rgb(26,26,26);fill-rule:nonzero;"/>
    <path d="M1986.06,1225.28L1983.51,1250.3L1976.2,1273.72L1964.73,1294.79L1949.65,1313.05L1931.4,1328.12L1910.33,1339.59L1886.91,1346.9L1861.89,1349.45L583.807,1349.45L558.789,1346.9L535.367,1339.59L514.297,1328.12L496.043,1313.05L480.967,1294.79L469.497,1273.72L462.188,1250.3L459.64,1225.28L462.188,1200.27L469.497,1176.84L480.967,1155.77L496.043,1137.52L514.297,1122.44L535.367,1110.97L558.789,1103.66L583.807,1101.12L1861.89,1101.12L1886.91,1103.66L1910.33,1110.97L1931.4,1122.44L1949.65,1137.52L1964.73,1155.77L1976.2,1176.84L1983.51,1200.27L1986.06,1225.28ZM1902.72,1225.28C1902.72,1202.82 1884.35,1184.45 1861.89,1184.45L583.807,1184.45C561.348,1184.45 542.973,1202.82 542.973,1225.28C542.973,1247.74 561.348,1266.12 583.807,1266.12L1861.89,1266.12C1884.35,1266.12 1902.72,1247.74 1902.72,1225.28ZM1414.39,814.908C1414.39,919.714 1327.65,1006.45 1222.85,1006.45C1118.04,1006.45 1031.31,919.714 1031.31,814.908C1031.31,710.102 1118.04,623.366 1222.85,623.366C1327.65,623.366 1414.39,710.102 1414.39,814.908ZM1331.06,814.908C1331.06,755.699 1282.06,706.699 1222.85,706.699C1163.64,706.699 1114.64,755.699 1114.64,814.908C1114.64,874.116 1163.64,923.116 1222.85,923.116C1282.06,923.116 1331.06,874.116 1331.06,814.908ZM1414.39,1635.66C1414.39,1740.46 1327.65,1827.2 1222.85,1827.2C1118.04,1827.2 1031.31,1740.46 1031.31,1635.66C1031.31,1530.85 1118.04,1444.12 1222.85,1444.12C1327.65,1444.12 1414.39,1530.85 1414.39,1635.66ZM1331.06,1635.66C1331.06,1576.45 1282.06,1527.45 1222.85,1527.45C1163.64,1527.45 1114.64,1576.45 1114.64,1635.66C1114.64,1694.87 1163.64,1743.87 1222.85,1743.87C1282.06,1743.87 1331.06,1694.87 1331.06,1635.66Z" style="fill:white;"/>
</svg>
