<?xml version="1.0" encoding="UTF-8" standalone="no"?>
<!DOCTYPE svg PUBLIC "-//W3C//DTD SVG 1.1//EN" "http://www.w3.org/Graphics/SVG/1.1/DTD/svg11.dtd">
<svg width="100%" height="100%" viewBox="0 0 2400 2400" version="1.1" xmlns="http://www.w3.org/2000/svg" xmlns:xlink="http://www.w3.org/1999/xlink" xml:space="preserve" xmlns:serif="http://www.serif.com/" style="fill-rule:evenodd;clip-rule:evenodd;stroke-linejoin:round;stroke-miterlimit:2;">
    <g transform="matrix(1,0,0,1,-343.196,-261.891)">
        <path d="M904.154,1619.1L2182.24,1619.1C2204.7,1619.1 2223.07,1637.47 2223.07,1659.93C2223.07,1682.39 2204.7,1700.77 2182.24,1700.77L904.154,1700.77C881.696,1700.77 863.321,1682.39 863.321,1659.93C863.321,1637.47 881.696,1619.1 904.154,1619.1ZM2182.24,1304.68L904.154,1304.68C881.696,1304.68 863.321,1286.31 863.321,1263.85C863.321,1241.39 881.696,1223.02 904.154,1223.02L2182.24,1223.02C2204.7,1223.02 2223.07,1241.39 2223.07,1263.85C2223.07,1286.31 2204.7,1304.68 2182.24,1304.68Z" style="fill:rgb(26,26,26);"/>
        <path d="M904.154,1535.77L2182.24,1535.77L2207.26,1538.31L2230.68,1545.62L2251.75,1557.09L2270,1572.17L2285.08,1590.42L2296.55,1611.49L2303.86,1634.91L2306.4,1659.93L2303.86,1684.95L2296.55,1708.37L2285.08,1729.44L2270,1747.7L2251.75,1762.77L2230.68,1774.24L2207.26,1781.55L2182.24,1784.1L904.154,1784.1L879.137,1781.55L855.715,1774.24L834.644,1762.77L816.39,1747.7L801.314,1729.44L789.844,1708.37L782.535,1684.95L779.987,1659.93L782.535,1634.91L789.844,1611.49L801.314,1590.42L816.39,1572.17L834.644,1557.09L855.715,1545.62L879.137,1538.31L904.154,1535.77ZM904.154,1619.1C881.696,1619.1 863.321,1637.47 863.321,1659.93C863.321,1682.39 881.696,1700.77 904.154,1700.77L2182.24,1700.77C2204.7,1700.77 2223.07,1682.39 2223.07,1659.93C2223.07,1637.47 2204.7,1619.1 2182.24,1619.1L904.154,1619.1ZM2182.24,1388.02L904.154,1388.02L879.137,1385.47L855.715,1378.16L834.644,1366.69L816.39,1351.61L801.314,1333.36L789.844,1312.29L782.535,1288.87L779.987,1263.85L782.535,1238.83L789.844,1215.41L801.314,1194.34L816.39,1176.09L834.644,1161.01L855.715,1149.54L879.137,1142.23L904.154,1139.68L2182.24,1139.68L2207.26,1142.23L2230.68,1149.54L2251.75,1161.01L2270,1176.09L2285.08,1194.34L2296.55,1215.41L2303.86,1238.83L2306.4,1263.85L2303.86,1288.87L2296.55,1312.29L2285.08,1333.36L2270,1351.61L2251.75,1366.69L2230.68,1378.16L2207.26,1385.47L2182.24,1388.02ZM2182.24,1304.68C2204.7,1304.68 2223.07,1286.31 2223.07,1263.85C2223.07,1241.39 2204.7,1223.02 2182.24,1223.02L904.154,1223.02C881.696,1223.02 863.321,1241.39 863.321,1263.85C863.321,1286.31 881.696,1304.68 904.154,1304.68L2182.24,1304.68Z" style="fill:white;"/>
    </g>
</svg>
