<?xml version="1.0" encoding="UTF-8" standalone="no"?>
<!DOCTYPE svg PUBLIC "-//W3C//DTD SVG 1.1//EN" "http://www.w3.org/Graphics/SVG/1.1/DTD/svg11.dtd">
<svg width="100%" height="100%" viewBox="0 0 2400 2400" version="1.1" xmlns="http://www.w3.org/2000/svg" xmlns:xlink="http://www.w3.org/1999/xlink" xml:space="preserve" xmlns:serif="http://www.serif.com/" style="fill-rule:evenodd;clip-rule:evenodd;stroke-linejoin:round;stroke-miterlimit:2;">
    <g transform="matrix(1,0,0,1,-55.3242,-314.155)">
        <path d="M1865.59,1554.99C1900.3,1538.65 1900.3,1489.65 1865.59,1473.32L679.379,911.863C628.337,889.405 593.629,962.905 642.629,985.363L1761.46,1514.15L642.629,2042.95C593.629,2065.41 628.337,2138.91 679.379,2116.45L1865.59,1554.99Z" style="fill:rgb(26,26,26);fill-rule:nonzero;"/>
        <path d="M1901.07,1630.39L715.03,2191.77C714.338,2192.1 713.641,2192.41 712.94,2192.72L688.423,2200.84L662.525,2203.98L636.771,2201.7L612.784,2194.36L591.692,2182.91L573.962,2168.39L548.541,2132.97L536.409,2090.9L536.101,2067.7L540.545,2043.65L550.383,2019.92L565.632,1998.26L585.339,1980.36C585.339,1980.36 607.907,1967.19 607.02,1967.6L1566.44,1514.15C1566.44,1514.15 607.02,1060.7 607.907,1061.12L585.339,1047.95L565.632,1030.05L550.383,1008.38L540.545,984.66L536.101,960.613L536.409,937.411L548.541,895.337L573.962,859.92L591.692,845.401L612.784,833.95L636.771,826.611L662.525,824.33L688.423,827.466L712.94,835.587C713.641,835.895 714.338,836.213 715.03,836.541L1901.07,1397.92L1932.79,1418.97L1956.34,1447.43L1970.36,1480L1974.95,1514.15L1970.36,1548.31L1956.34,1580.88L1932.79,1609.34L1901.07,1630.39ZM1865.59,1554.99C1900.3,1538.65 1900.3,1489.65 1865.59,1473.32L679.379,911.863C628.337,889.405 593.629,962.905 642.629,985.363L1761.46,1514.15L642.629,2042.95C593.629,2065.41 628.337,2138.91 679.379,2116.45L1865.59,1554.99Z" style="fill:white;"/>
    </g>
</svg>
