<?xml version="1.0" encoding="UTF-8" standalone="no"?>
<!DOCTYPE svg PUBLIC "-//W3C//DTD SVG 1.1//EN" "http://www.w3.org/Graphics/SVG/1.1/DTD/svg11.dtd">
<svg width="100%" height="100%" viewBox="0 0 2400 2400" version="1.1" xmlns="http://www.w3.org/2000/svg" xmlns:xlink="http://www.w3.org/1999/xlink" xml:space="preserve" xmlns:serif="http://www.serif.com/" style="fill-rule:evenodd;clip-rule:evenodd;stroke-linejoin:round;stroke-miterlimit:2;">
    <g transform="matrix(1,0,0,1,-57.9722,-367.561)">
        <path d="M1737.76,2047.35C1754.1,2033.06 1754.1,2006.52 1737.76,1990.19L1315.14,1567.56L1737.76,1144.94C1754.1,1128.6 1754.1,1102.06 1737.76,1087.77C1723.47,1071.44 1696.93,1071.44 1680.6,1087.77L1257.97,1510.39L835.347,1087.77C819.014,1071.44 792.472,1071.44 778.181,1087.77C761.847,1102.06 761.847,1128.6 778.181,1144.94L1200.81,1567.56L778.181,1990.19C761.847,2006.52 761.847,2033.06 778.181,2047.35C792.472,2063.69 819.014,2063.69 835.347,2047.35L1257.97,1624.73L1680.6,2047.35C1696.93,2063.69 1723.47,2063.69 1737.76,2047.35Z" style="fill:rgb(26,26,26);fill-rule:nonzero;"/>
        <path d="M1796.37,2105.96L1780.59,2120.33L1757.99,2133.11L1734.12,2140.54L1709.95,2142.94L1686.07,2140.61L1662.95,2133.71L1641.21,2122.23L1621.67,2106.28L1257.97,1742.58L894.273,2106.28L874.736,2122.23L852.991,2133.71L829.88,2140.61L805.998,2142.94L781.825,2140.54L757.957,2133.11L735.358,2120.33L719.571,2105.96L705.208,2090.18L692.424,2067.58L684.996,2043.71L682.597,2019.54L684.919,1995.65L691.825,1972.54L703.3,1950.8L719.255,1931.26L1082.95,1567.56L719.255,1203.86L703.3,1184.33L691.825,1162.58L684.919,1139.47L682.597,1115.59L684.996,1091.41L692.424,1067.55L705.208,1044.95L719.571,1029.16L735.358,1014.8L757.957,1002.01L781.825,994.585L805.998,992.186L829.88,994.508L852.991,1001.41L874.736,1012.89L894.273,1028.84L1257.97,1392.54L1621.67,1028.84L1641.21,1012.89L1662.95,1001.41L1686.07,994.508L1709.95,992.186L1734.12,994.585L1757.99,1002.01L1780.59,1014.8L1796.37,1029.16L1810.74,1044.95L1823.52,1067.55L1830.95,1091.41L1833.35,1115.59L1831.03,1139.47L1824.12,1162.58L1812.64,1184.33L1796.69,1203.86L1432.99,1567.56L1796.69,1931.26L1812.64,1950.8L1824.12,1972.54L1831.03,1995.65L1833.35,2019.54L1830.95,2043.71L1823.52,2067.58L1810.74,2090.18L1796.37,2105.96ZM1737.76,2047.35C1754.1,2033.06 1754.1,2006.52 1737.76,1990.19L1315.14,1567.56L1737.76,1144.94C1754.1,1128.6 1754.1,1102.06 1737.76,1087.77C1723.47,1071.44 1696.93,1071.44 1680.6,1087.77L1257.97,1510.39L835.347,1087.77C819.014,1071.44 792.472,1071.44 778.181,1087.77C761.847,1102.06 761.847,1128.6 778.181,1144.94L1200.81,1567.56L778.181,1990.19C761.847,2006.52 761.847,2033.06 778.181,2047.35C792.472,2063.69 819.014,2063.69 835.347,2047.35L1257.97,1624.73L1680.6,2047.35C1696.93,2063.69 1723.47,2063.69 1737.76,2047.35Z" style="fill:white;"/>
    </g>
</svg>
