<?xml version="1.0" encoding="UTF-8" standalone="no"?>
<!DOCTYPE svg PUBLIC "-//W3C//DTD SVG 1.1//EN" "http://www.w3.org/Graphics/SVG/1.1/DTD/svg11.dtd">
<svg width="100%" height="100%" viewBox="0 0 2400 2400" version="1.1" xmlns="http://www.w3.org/2000/svg" xmlns:xlink="http://www.w3.org/1999/xlink" xml:space="preserve" xmlns:serif="http://www.serif.com/" style="fill-rule:evenodd;clip-rule:evenodd;stroke-linejoin:round;stroke-miterlimit:2;">
    <path d="M1839.04,1042.79L560.958,1042.79C538.5,1042.79 520.125,1024.42 520.125,1001.96C520.125,979.5 538.5,961.125 560.958,961.125L1839.04,961.125C1861.5,961.125 1879.88,979.5 1879.88,1001.96C1879.88,1024.42 1861.5,1042.79 1839.04,1042.79Z" style="fill:rgb(26,26,26);"/>
    <path d="M1839.04,1126.12L560.958,1126.12L535.941,1123.58L512.519,1116.27L491.448,1104.8L473.194,1089.72L458.119,1071.47L446.648,1050.4L439.339,1026.98L436.792,1001.96L439.339,976.941L446.648,953.519L458.119,932.448L473.194,914.194L491.448,899.119L512.519,887.648L535.941,880.339L560.958,877.792L1839.04,877.792L1864.06,880.339L1887.48,887.648L1908.55,899.119L1926.81,914.194L1941.88,932.448L1953.35,953.519L1960.66,976.941L1963.21,1001.96L1960.66,1026.98L1953.35,1050.4L1941.88,1071.47L1926.81,1089.72L1908.55,1104.8L1887.48,1116.27L1864.06,1123.58L1839.04,1126.12ZM1839.04,1042.79C1861.5,1042.79 1879.88,1024.42 1879.88,1001.96C1879.88,979.5 1861.5,961.125 1839.04,961.125L560.958,961.125C538.5,961.125 520.125,979.5 520.125,1001.96C520.125,1024.42 538.5,1042.79 560.958,1042.79L1839.04,1042.79Z" style="fill:white;"/>
</svg>
