<?xml version="1.0" encoding="UTF-8" standalone="no"?>
<!DOCTYPE svg PUBLIC "-//W3C//DTD SVG 1.1//EN" "http://www.w3.org/Graphics/SVG/1.1/DTD/svg11.dtd">
<svg width="100%" height="100%" viewBox="0 0 2400 2400" version="1.1" xmlns="http://www.w3.org/2000/svg" xmlns:xlink="http://www.w3.org/1999/xlink" xml:space="preserve" xmlns:serif="http://www.serif.com/" style="fill-rule:evenodd;clip-rule:evenodd;stroke-linejoin:round;stroke-miterlimit:2;">
    <g transform="matrix(0.580269,0,0,0.580269,736.953,519.652)">
        <path d="M928.975,413.73C928.975,332.171 862.245,287.685 797.987,287.685C733.729,287.685 667,332.171 667,413.73L763.387,1538.25C765.858,1575.32 768.33,1595.09 797.987,1595.09C822.702,1595.09 830.116,1582.73 832.588,1540.72L928.975,413.73ZM928.975,1926.27C928.975,1854.59 869.66,1795.28 797.987,1795.28C726.315,1795.28 667,1854.59 667,1926.27C667,1997.94 726.315,2057.25 797.987,2057.25C869.66,2057.25 928.975,1997.94 928.975,1926.27Z" style="fill:rgb(26,26,26);fill-rule:nonzero;"/>
        <path d="M924.948,1684.44L951.594,1699.01L991.907,1732.35L1025.25,1772.66L1050.65,1819.15L1066.9,1870.85L1072.59,1926.27L1066.9,1981.68L1050.65,2033.38L1025.25,2079.87L991.907,2120.19L951.594,2153.52L905.105,2178.93L853.404,2195.18L797.987,2200.87L742.571,2195.18L690.87,2178.93L644.381,2153.52L604.068,2120.19L570.73,2079.87L545.32,2033.38L529.079,1981.68L523.388,1926.27L529.079,1870.85L545.32,1819.15L570.73,1772.66L604.068,1732.35L644.381,1699.01L670.646,1684.65L661.285,1675.12L632.088,1620.47C626.22,1602.62 622.244,1578.94 620.192,1549.25L523.913,425.994C523.563,421.916 523.388,417.824 523.388,413.73L529.623,354.556L548.169,299.161L577.43,250.761L614.6,211.373L656.878,181.472L702.24,160.619L749.495,148.235L797.987,144.074L846.48,148.235L893.735,160.619L939.097,181.472L981.375,211.373L1018.55,250.761L1047.81,299.161L1066.35,354.556L1072.59,413.73C1072.59,417.815 1072.41,421.898 1072.06,425.968L975.83,1551.15C974.706,1568.99 972.764,1583.71 970.292,1595.82L957.547,1636.73L924.948,1684.44ZM928.975,413.73C928.975,332.171 862.245,287.685 797.987,287.685C733.729,287.685 667,332.171 667,413.73L763.387,1538.25C765.858,1575.32 768.33,1595.09 797.987,1595.09C822.702,1595.09 830.116,1582.73 832.588,1540.72L928.975,413.73ZM928.975,1926.27C928.975,1854.59 869.66,1795.28 797.987,1795.28C726.315,1795.28 667,1854.59 667,1926.27C667,1997.94 726.315,2057.25 797.987,2057.25C869.66,2057.25 928.975,1997.94 928.975,1926.27Z" style="fill:white;"/>
    </g>
</svg>
