<?xml version="1.0" encoding="UTF-8" standalone="no"?>
<!DOCTYPE svg PUBLIC "-//W3C//DTD SVG 1.1//EN" "http://www.w3.org/Graphics/SVG/1.1/DTD/svg11.dtd">
<svg width="100%" height="100%" viewBox="0 0 2400 2400" version="1.1" xmlns="http://www.w3.org/2000/svg" xmlns:xlink="http://www.w3.org/1999/xlink" xml:space="preserve" xmlns:serif="http://www.serif.com/" style="fill-rule:evenodd;clip-rule:evenodd;stroke-linejoin:round;stroke-miterlimit:2;">
    <g transform="matrix(1.06358,0,0,1.06358,493.003,82.7423)">
        <path d="M886.593,1987.85C886.593,1982.09 882.752,1976.33 878.91,1972.48C679.14,1822.66 546.6,1438.48 546.6,1131.14L546.6,969.792C546.6,662.454 679.14,278.281 878.91,128.453C882.752,124.611 886.593,118.849 886.593,113.086C886.593,103.482 876.989,93.878 867.385,93.878C863.543,93.878 859.701,95.798 855.86,97.719C644.564,257.151 442.873,641.324 442.873,969.792L442.873,1131.14C442.873,1459.61 644.564,1843.79 855.86,2003.22C859.701,2005.14 863.543,2007.06 867.385,2007.06C876.989,2007.06 886.593,1997.46 886.593,1987.85Z" style="fill:rgb(26,26,26);fill-rule:nonzero;"/>
        <path d="M964.945,1987.85L962.383,2009.58L955.944,2028.04L935.994,2056.46L907.572,2076.41L889.116,2082.85L867.385,2085.41L844.567,2082.51L820.82,2073.3C816.547,2071.16 812.48,2068.64 808.667,2065.76C582.073,1894.79 364.522,1483.39 364.522,1131.14L364.522,969.792C364.522,617.542 582.073,206.15 808.667,35.175C812.48,32.298 816.547,29.775 820.82,27.639L844.567,18.422L867.385,15.526L889.116,18.088L907.572,24.527L935.994,44.477L955.944,72.899L962.383,91.355L964.945,113.086L963.174,131.059L956.427,152.073L934.313,183.856C931.691,186.478 928.887,188.91 925.921,191.134C741.563,329.403 624.952,686.165 624.952,969.792L624.952,1131.14C624.952,1414.77 741.563,1771.54 925.921,1909.8C928.887,1912.03 931.691,1914.46 934.313,1917.08L956.427,1948.86L963.174,1969.88L964.945,1987.85ZM886.593,1987.85C886.593,1982.09 882.752,1976.33 878.91,1972.48C679.14,1822.66 546.6,1438.48 546.6,1131.14L546.6,969.792C546.6,662.454 679.14,278.281 878.91,128.453C882.752,124.611 886.593,118.849 886.593,113.086C886.593,103.482 876.989,93.878 867.385,93.878C863.543,93.878 859.701,95.798 855.86,97.719C644.564,257.151 442.873,641.324 442.873,969.792L442.873,1131.14C442.873,1459.61 644.564,1843.79 855.86,2003.22C859.701,2005.14 863.543,2007.06 867.385,2007.06C876.989,2007.06 886.593,1997.46 886.593,1987.85Z" style="fill:white;"/>
    </g>
</svg>
