<?xml version="1.0" encoding="UTF-8" standalone="no"?>
<!DOCTYPE svg PUBLIC "-//W3C//DTD SVG 1.1//EN" "http://www.w3.org/Graphics/SVG/1.1/DTD/svg11.dtd">
<svg width="100%" height="100%" viewBox="0 0 2400 2400" version="1.1" xmlns="http://www.w3.org/2000/svg" xmlns:xlink="http://www.w3.org/1999/xlink" xml:space="preserve" xmlns:serif="http://www.serif.com/" style="fill-rule:evenodd;clip-rule:evenodd;stroke-linejoin:round;stroke-miterlimit:2;">
    <g transform="matrix(0.580955,0,0,0.580955,730.415,619.391)">
        <path d="M598.138,1847.11C598.138,1866.54 582.244,1882.43 562.817,1882.43C543.39,1882.43 527.496,1866.54 527.496,1847.11L527.496,151.696C527.496,132.27 543.39,116.375 562.817,116.375C582.244,116.375 598.138,132.27 598.138,151.696L598.138,1847.11ZM1089.1,1847.11C1089.1,1866.54 1073.21,1882.43 1053.78,1882.43C1034.36,1882.43 1018.46,1866.54 1018.46,1847.11L1018.46,151.696C1018.46,132.27 1034.36,116.375 1053.78,116.375C1073.21,116.375 1089.1,132.27 1089.1,151.696L1089.1,1847.11Z" style="fill:rgb(26,26,26);"/>
        <path d="M741.58,1847.11L737.909,1883.15L727.373,1916.91L689.191,1973.49L632.619,2011.67L598.856,2022.21L562.817,2025.88L526.778,2022.21L493.015,2011.67L436.442,1973.49L398.261,1916.91L387.725,1883.15L384.054,1847.11L384.054,151.696L387.725,115.658L398.261,81.894L436.442,25.322L493.015,-12.86L526.778,-23.396L562.817,-27.067L598.856,-23.396L632.619,-12.86L689.191,25.322L727.373,81.894L737.909,115.658L741.58,151.696L741.58,1847.11ZM598.138,1847.11L598.138,151.696C598.138,132.27 582.244,116.375 562.817,116.375C543.39,116.375 527.496,132.27 527.496,151.696L527.496,1847.11C527.496,1866.54 543.39,1882.43 562.817,1882.43C582.244,1882.43 598.138,1866.54 598.138,1847.11ZM1232.55,1847.11L1228.87,1883.15L1218.34,1916.91L1180.16,1973.49L1123.58,2011.67L1089.82,2022.21L1053.78,2025.88L1017.74,2022.21L983.979,2011.67L927.407,1973.49L889.225,1916.91L878.689,1883.15L875.018,1847.11L875.018,151.696L878.689,115.658L889.225,81.894L927.407,25.322L983.979,-12.86L1017.74,-23.396L1053.78,-27.067L1089.82,-23.396L1123.58,-12.86L1180.16,25.322L1218.34,81.894L1228.87,115.658L1232.55,151.696L1232.55,1847.11ZM1089.1,1847.11L1089.1,151.696C1089.1,132.27 1073.21,116.375 1053.78,116.375C1034.36,116.375 1018.46,132.27 1018.46,151.696L1018.46,1847.11C1018.46,1866.54 1034.36,1882.43 1053.78,1882.43C1073.21,1882.43 1089.1,1866.54 1089.1,1847.11Z" style="fill:white;"/>
    </g>
</svg>
