<?xml version="1.0" encoding="UTF-8" standalone="no"?>
<!DOCTYPE svg PUBLIC "-//W3C//DTD SVG 1.1//EN" "http://www.w3.org/Graphics/SVG/1.1/DTD/svg11.dtd">
<svg width="100%" height="100%" viewBox="0 0 2400 2400" version="1.1" xmlns="http://www.w3.org/2000/svg" xmlns:xlink="http://www.w3.org/1999/xlink" xml:space="preserve" xmlns:serif="http://www.serif.com/" style="fill-rule:evenodd;clip-rule:evenodd;stroke-linejoin:round;stroke-miterlimit:2;">
    <g transform="matrix(1,0,0,1,34.3377,-168.759)">
        <path d="M392.063,1951.06L391.758,1950.38L391.87,1950.45L392.063,1951.06ZM392.063,1951.06C416.451,2004.91 464.333,2011.52 481.003,2012.14L480.502,2011.92C450.368,2010.07 422.389,1995.21 403.985,1971.02L385.353,1937.81L376.549,1901.02L378.243,1862.47L391.148,1824.82C641.675,1338.05 707.049,1158.05 707.159,494.969L709.033,472.347L709.368,508.526L709.654,456.822L728.091,410.353L762.094,373.392L808.972,350.61L845.407,345.744C858.194,345.517 874.908,346.6 895.381,350.676C939.191,359.399 1038.14,389.552 1192.17,397.734C1288,402.824 1372.08,393.693 1437.4,397.43C1516.98,401.982 1578.85,424.316 1624.14,464.52C1761.07,586.076 1806.44,645.967 1849.5,768.65C1909.1,938.442 1929.42,1128.29 1892.04,1580.65C1852.46,2059.63 1724.79,2291.12 1703.01,2335.6L1680.16,2368.83L1651.62,2391.83L1626.55,2404.73L1595.88,2412.42L1563.59,2412.83L1531.3,2405.41C1038.21,2227.29 945.977,2237.2 464.772,2027.8L435.203,2010.25L411.478,1986.63L394.466,1958.62L392.063,1951.06ZM811.78,489.487C811.482,491.276 811.326,493.113 811.326,494.987C811.212,1181.86 743.281,1368.26 483.767,1872.49C477.695,1884.29 479.356,1898.04 486.893,1907.95L486.894,1907.95C488.892,1918.41 495.852,1927.73 506.337,1932.29C984.717,2140.46 1076.5,2130.36 1566.69,2307.44C1577.05,2311.18 1588.06,2309.47 1596.57,2303.78C1601.94,2300.59 1606.5,2295.84 1609.45,2289.79C1630.15,2247.52 1750.61,2027.29 1788.23,1572.08C1823.61,1143.8 1807.64,963.9 1751.21,803.149C1714.09,697.387 1673.03,647.211 1554.98,542.42C1525.28,516.048 1483.65,504.413 1431.46,501.427C1366.25,497.697 1282.3,506.835 1186.64,501.754C1024.97,493.166 921.027,461.994 875.041,452.838C856.058,449.059 842.942,449.349 835.932,451.227C819.016,455.76 808.632,472.554 811.78,489.487ZM507.174,1902.7C506.983,1900.33 505.984,1898.09 504.344,1896.36C500.784,1892.61 499.793,1886.88 502.291,1882.03C763.602,1374.3 832.044,1186.62 832.159,494.99C832.159,493.936 832.289,492.911 832.535,491.933C832.969,490.207 832.954,488.398 832.49,486.68L832.485,486.66C830.7,479.996 834.66,473.136 841.324,471.351C846.645,469.925 856.564,470.401 870.973,473.27C917.394,482.513 1022.33,513.888 1185.54,522.558C1281.17,527.637 1365.08,518.497 1430.27,522.226C1476.99,524.899 1514.56,534.392 1541.15,558C1655.42,659.439 1695.62,707.67 1731.56,810.049C1787.35,968.992 1802.45,1146.9 1767.46,1570.36C1730.24,2020.83 1611.22,2238.8 1590.74,2280.63C1589.61,2282.94 1587.86,2284.75 1585.79,2285.95C1585.56,2286.08 1585.33,2286.22 1585.11,2286.38C1581.9,2288.58 1577.71,2289.26 1573.77,2287.84C1084.15,2110.98 992.465,2121.11 514.65,1913.18C510.268,1911.28 507.533,1907.15 507.174,1902.7ZM869.484,498.728C866.441,498.158 863.301,498.97 860.918,500.946C858.534,502.921 857.152,505.855 857.147,508.951C856.119,1189.22 787.379,1381.79 530.969,1880.92C529.652,1883.49 529.456,1886.48 530.427,1889.19C531.397,1891.91 533.448,1894.1 536.092,1895.24C997.33,2095.17 1094.85,2089.33 1563.95,2257.73C1568.93,2259.52 1574.46,2257.29 1576.81,2252.54C1610.67,2184.02 1709.4,1969.53 1742.55,1568.3C1777.06,1150.62 1762.99,975.102 1707.97,818.329C1673.45,720.01 1634.29,674.113 1524.56,576.696C1501.69,556.401 1469.01,549.483 1428.84,547.185C1363.68,543.458 1279.8,552.6 1184.21,547.522C1039.57,539.839 940.096,514.613 885.99,502.149C880.323,500.843 874.615,499.69 869.484,498.728ZM877.953,521.696C879.071,521.941 880.193,522.192 881.313,522.45C936.066,535.064 1036.73,560.551 1183.11,568.326C1278.66,573.402 1362.51,564.259 1427.65,567.985C1462.36,569.971 1490.97,574.738 1510.73,592.276C1616.69,686.342 1654.99,730.292 1688.31,825.229C1742.7,980.194 1755.9,1153.72 1721.79,1566.59C1690.24,1948.32 1598.91,2159.18 1562.21,2234.98C1104.67,2071.23 1003.66,2074.49 554.583,1880.54C807.006,1388.38 876.09,1191.91 877.953,521.696ZM1447,674.999C1441.74,674.194 1429.68,672.438 1421.7,671.981C1356.67,668.262 1272.97,677.413 1177.58,672.346C1099.82,668.216 1034.23,659.415 980.849,649.982C970.954,1199.83 902.732,1419.18 697.994,1828.12C1032.55,1966.51 1159.53,1985.09 1504.93,2104.41C1544.55,2000.17 1596.13,1822.41 1617.97,1558.01C1650.1,1169.22 1641.24,1005.66 1590.02,859.728C1563.21,783.337 1530.09,748.951 1447,674.999ZM731.915,513.796C735.977,528.862 743.221,542.404 752.805,553.777C752.856,545.866 752.896,537.885 752.926,529.831L731.889,513.699L731.915,513.796ZM728.683,489.396L729.81,480.296L729.575,476.49C728.98,480.772 728.683,485.084 728.683,489.396ZM1640.3,2374.25L1637.91,2376.14C1640.01,2374.93 1642.06,2373.63 1644.05,2372.26L1640.3,2374.25Z" style="fill:white;"/>
    </g>
    <g>
        <g transform="matrix(1,0,0,1,34.3377,-168.759)">
            <path d="M867.564,508.966C872.565,509.904 878.128,511.027 883.652,512.3C938.081,524.838 1038.15,550.195 1183.66,557.924C1279.23,563.001 1363.1,553.858 1428.24,557.585C1465.68,559.727 1496.33,565.57 1517.64,584.486C1625.49,680.227 1664.22,725.151 1698.14,821.779C1752.85,977.648 1766.48,1152.17 1732.17,1567.44C1699.2,1966.45 1601.14,2179.78 1567.47,2247.93C1098.65,2079.63 1001.19,2085.49 540.235,1885.68C797.532,1384.83 866.532,1191.59 867.564,508.966Z" style="fill:rgb(255,161,236);"/>
        </g>
        <g transform="matrix(1,0,0,1,34.3377,-168.759)">
            <path d="M867.564,508.966C872.565,509.904 878.128,511.027 883.652,512.3C938.081,524.838 1038.15,550.195 1183.66,557.924C1235.49,560.678 1299.11,542.375 1366.66,541.807C1423.66,541.328 1486.52,558.562 1516.34,560.268C1532.23,561.177 1498.38,581.054 1460.16,619.357C1438.29,641.268 1259.32,638.277 1241.88,659.515C1217.98,688.625 1350.41,751.324 1357.5,757.619C1465.35,853.361 1524.75,883.095 1577.12,946.742C1626.33,1006.56 1635.93,1024.92 1676.47,1098.89C1703.3,1147.83 1749.64,1225.76 1745.88,1325.01C1743.21,1395.64 1738.61,1475.65 1732.17,1567.44C1719.5,1748.03 1693.75,1863.94 1667.1,1965.65C1520.96,1431.76 1351.29,1275.5 1213.33,1146.42C1061.16,1004.04 900.738,1095.63 816.803,1207.29C845.021,857.235 860.76,781.286 867.564,508.966Z" style="fill-opacity:0.19;"/>
        </g>
        <g transform="matrix(1,0,0,1,34.3377,-168.759)">
            <path d="M496.791,1903.54C490.267,1896.67 488.451,1886.15 493.029,1877.26C753.442,1371.28 821.628,1184.24 821.742,494.988C821.743,493.058 821.982,491.183 822.433,489.391C822.43,489.38 822.427,489.368 822.423,489.356C819.15,477.139 826.411,464.563 838.628,461.289C844.793,459.637 856.312,459.73 873.007,463.054C919.211,472.253 1023.65,503.527 1186.09,512.156C1281.74,517.236 1365.66,508.097 1430.86,511.827C1480.32,514.656 1519.92,525.22 1548.07,550.21C1664.23,653.325 1704.85,702.529 1741.38,806.599C1797.49,966.446 1813.03,1145.35 1777.85,1571.22C1740.43,2024.06 1620.69,2243.16 1600.1,2285.21C1598.02,2289.45 1594.81,2292.77 1591,2294.97C1585.12,2299 1577.45,2300.24 1570.23,2297.64C1080.33,2120.67 988.591,2130.78 510.493,1922.74C502.467,1919.24 497.449,1911.7 496.791,1903.54ZM867.564,508.966C866.532,1191.59 797.532,1384.83 540.235,1885.68C1001.19,2085.49 1098.65,2079.63 1567.47,2247.93C1601.14,2179.78 1699.2,1966.45 1732.17,1567.44C1766.48,1152.17 1752.85,977.648 1698.14,821.779C1664.22,725.151 1625.49,680.227 1517.64,584.486C1496.33,565.57 1465.68,559.727 1428.24,557.585C1363.1,553.858 1279.23,563.001 1183.66,557.924C1038.15,550.195 938.081,524.838 883.652,512.3C878.128,511.027 872.565,509.904 867.564,508.966Z" style="fill:rgb(57,57,57);stroke:rgb(57,57,57);stroke-width:20.83px;"/>
        </g>
        <g transform="matrix(1,0,0,1,34.3377,-168.759)">
            <path d="M1260.06,671.314C1493.42,835.339 1603.23,922.91 1671.71,1043.43C1720.22,1128.82 1748.06,1230.93 1783.4,1389.13C1785.66,1399.23 1779.29,1409.26 1769.19,1411.52C1759.09,1413.77 1749.06,1407.4 1746.8,1397.31C1712.54,1243.93 1686.14,1144.74 1639.1,1061.95C1568.41,937.544 1451.28,850.554 1194.54,671.196C1188.72,667.132 1185.69,660.132 1186.72,653.111C1187.75,646.089 1192.65,640.249 1199.39,638.022C1203.9,636.533 1216.48,635.414 1234.56,634.75C1269.71,633.459 1329.63,631.934 1386.17,619.782C1435.72,609.134 1483.26,591.127 1504.84,554.753C1510.12,545.852 1521.63,542.912 1530.53,548.191C1539.43,553.47 1542.37,564.982 1537.09,573.883C1510.76,618.279 1454.53,643.448 1394.05,656.445C1346.56,666.652 1296.79,669.78 1260.06,671.314Z" style="fill:rgb(57,57,57);"/>
        </g>
    </g>
</svg>
