<?xml version="1.0" encoding="UTF-8" standalone="no"?>
<!DOCTYPE svg PUBLIC "-//W3C//DTD SVG 1.1//EN" "http://www.w3.org/Graphics/SVG/1.1/DTD/svg11.dtd">
<svg width="100%" height="100%" viewBox="0 0 2400 2400" version="1.1" xmlns="http://www.w3.org/2000/svg" xmlns:xlink="http://www.w3.org/1999/xlink" xml:space="preserve" xmlns:serif="http://www.serif.com/" style="fill-rule:evenodd;clip-rule:evenodd;stroke-linejoin:round;stroke-miterlimit:2;">
    <g transform="matrix(1,0,0,1,-122.434,-277.771)">
        <path d="M2002.73,1477.77C2002.73,1455.3 1984.34,1436.91 1961.87,1436.91L1363.29,1436.91L1363.29,838.338C1363.29,815.866 1344.91,797.479 1322.43,797.479C1299.96,797.479 1281.58,815.866 1281.58,838.338L1281.58,1436.91L683.001,1436.91C660.529,1436.91 642.143,1455.3 642.143,1477.77C642.143,1500.24 660.529,1518.63 683.001,1518.63L1281.58,1518.63L1281.58,2117.2C1281.58,2139.68 1299.96,2158.06 1322.43,2158.06C1344.91,2158.06 1363.29,2139.68 1363.29,2117.2L1363.29,1518.63L1961.87,1518.63C1984.34,1518.63 2002.73,1500.24 2002.73,1477.77Z" style="fill:rgb(26,26,26);fill-rule:nonzero;"/>
        <path d="M2086.06,1477.77L2083.51,1502.79L2076.2,1526.22L2064.73,1547.29L2049.65,1565.55L2031.39,1580.63L2010.32,1592.1L1986.89,1599.41L1961.87,1601.96L1446.63,1601.96L1446.63,2117.2L1444.08,2142.23L1436.77,2165.65L1425.3,2186.73L1410.22,2204.99L1391.96,2220.06L1370.88,2231.54L1347.46,2238.85L1322.43,2241.39L1297.41,2238.85L1273.99,2231.54L1252.91,2220.06L1234.65,2204.99L1219.57,2186.73L1208.1,2165.65L1200.79,2142.23L1198.24,2117.2L1198.24,1601.96L683.001,1601.96L657.979,1599.41L634.552,1592.1L613.478,1580.63L595.22,1565.55L580.141,1547.29L568.668,1526.22L561.358,1502.79L558.81,1477.77L561.358,1452.75L568.668,1429.32L580.141,1408.25L595.22,1389.99L613.478,1374.91L634.552,1363.44L657.979,1356.13L683.001,1353.58L1198.24,1353.58L1198.24,838.338L1200.79,813.315L1208.1,789.889L1219.57,768.814L1234.65,750.556L1252.91,735.477L1273.99,724.005L1297.41,716.694L1322.43,714.146L1347.46,716.694L1370.88,724.005L1391.96,735.477L1410.22,750.556L1425.3,768.814L1436.77,789.889L1444.08,813.315L1446.63,838.338L1446.63,1353.58L1961.87,1353.58L1986.89,1356.13L2010.32,1363.44L2031.39,1374.91L2049.65,1389.99L2064.73,1408.25L2076.2,1429.32L2083.51,1452.75L2086.06,1477.77ZM2002.73,1477.77C2002.73,1455.3 1984.34,1436.91 1961.87,1436.91L1363.29,1436.91L1363.29,838.338C1363.29,815.866 1344.91,797.479 1322.43,797.479C1299.96,797.479 1281.58,815.866 1281.58,838.338L1281.58,1436.91L683.001,1436.91C660.529,1436.91 642.143,1455.3 642.143,1477.77C642.143,1500.24 660.529,1518.63 683.001,1518.63L1281.58,1518.63L1281.58,2117.2C1281.58,2139.68 1299.96,2158.06 1322.43,2158.06C1344.91,2158.06 1363.29,2139.68 1363.29,2117.2L1363.29,1518.63L1961.87,1518.63C1984.34,1518.63 2002.73,1500.24 2002.73,1477.77Z" style="fill:white;"/>
    </g>
</svg>
