<svg xmlns="http://www.w3.org/2000/svg" viewBox="0 0 491.161 693.154">
  <path d="M238 164Q223 164 218.5 166.5Q214 169 213 177Q210 210 215.5 234.0Q221 258 237.5 276.0Q254 294 272.5 305.5Q291 317 324 332Q363 350 385.0 374.0Q407 398 402 437Q396 477 360.5 496.5Q325 516 277 516Q228 516 196.0 493.5Q164 471 164 433Q164 414 169 398Q173 374 168 371Q145 357 67 337Q37 328 35 432V450Q35 506 67.0 542.5Q99 579 156 608Q205 631 283 631Q370 631 428.5 602.5Q487 574 506 526Q531 463 525.0 412.5Q519 362 498.0 329.5Q477 297 444 281Q353 236 353 190Q353 171 342.0 167.0Q331 163 282 164Q255 164 238 164ZM288 -62Q249 -64 224.5 -40.0Q200 -16 200 21Q200 101 285 101Q325 101 347.5 81.5Q370 62 370 33Q370 -4 349.5 -32.0Q329 -60 288 -62Z" transform="translate(-35 631) scale(1 -1)" fill="currentColor"/>
</svg>
