<?xml version="1.0" encoding="UTF-8" standalone="no"?>
<!DOCTYPE svg PUBLIC "-//W3C//DTD SVG 1.1//EN" "http://www.w3.org/Graphics/SVG/1.1/DTD/svg11.dtd">
<svg width="100%" height="100%" viewBox="0 0 64 64" version="1.1" xmlns="http://www.w3.org/2000/svg" xmlns:xlink="http://www.w3.org/1999/xlink" xml:space="preserve" xmlns:serif="http://www.serif.com/" style="fill-rule:evenodd;clip-rule:evenodd;stroke-linejoin:round;stroke-miterlimit:2;">
    <g>
        <rect x="30" y="6" width="4" height="10" rx="2" style="fill:rgb(75,85,99);"/>
        <rect x="30" y="6" width="4" height="10" rx="2" style="fill:rgb(75,85,99);" transform="rotate(45 32 32)"/>
        <rect x="30" y="6" width="4" height="10" rx="2" style="fill:rgb(75,85,99);" transform="rotate(90 32 32)"/>
        <rect x="30" y="6" width="4" height="10" rx="2" style="fill:rgb(75,85,99);" transform="rotate(135 32 32)"/>
        <rect x="30" y="6" width="4" height="10" rx="2" style="fill:rgb(75,85,99);" transform="rotate(180 32 32)"/>
        <rect x="30" y="6" width="4" height="10" rx="2" style="fill:rgb(75,85,99);" transform="rotate(225 32 32)"/>
        <rect x="30" y="6" width="4" height="10" rx="2" style="fill:rgb(75,85,99);" transform="rotate(270 32 32)"/>
        <rect x="30" y="6" width="4" height="10" rx="2" style="fill:rgb(75,85,99);" transform="rotate(315 32 32)"/>
    </g>
    <circle cx="32" cy="32" r="13" style="fill:rgb(154,161,171);"/>
</svg>
