<?xml version="1.0" encoding="UTF-8" standalone="no"?>
<!DOCTYPE svg PUBLIC "-//W3C//DTD SVG 1.1//EN" "http://www.w3.org/Graphics/SVG/1.1/DTD/svg11.dtd">
<svg width="100%" height="100%" viewBox="0 0 499 407" version="1.1" xmlns="http://www.w3.org/2000/svg" xmlns:xlink="http://www.w3.org/1999/xlink" xml:space="preserve" xmlns:serif="http://www.serif.com/" style="fill-rule:evenodd;clip-rule:evenodd;">
    <g transform="matrix(1,0,0,1,0.0330645,0)">
        <path d="M498,31.9C498,14.3 483.7,0 466.1,0L31.9,0C14.3,0 0,14.3 0,31.9L0,374.1C-1,399 21,405 23,406C23,406 22,397 31,398L49,398C49,398 58,397 57,406L121,406C121,406 120,397 129,398L147,398C147,398 157.039,396.361 156.071,406L232,406C232,406 231,397 240,398L258,398C258,398 267,397 266,406L344,406C344,406 343,397 352,398L370,398C370,398 379,397 378,406L441,406C441,406 440,397 449,398L467,398C467,398 476,397 475,406C484,406 498,389 498,375L498,31.9ZM14.3,206.7C11.6,206.7 9.5,204.5 9.5,201.9C9.5,199.2 11.7,197.1 14.3,197.1C17,197.1 19.1,199.3 19.1,201.9C19.2,204.6 17,206.7 14.3,206.7ZM486.2,206.7C483.5,206.7 481.4,204.5 481.4,201.9C481.4,199.18 483.404,197.109 486.2,197.1C488.9,197.091 491,199.3 491,201.9C491,204.6 488.8,206.7 486.2,206.7Z" style="fill:rgb(17,17,17);fill-rule:nonzero;"/>
        <g id="Chrome">
            <path d="M115,56.7L173.1,0L115,0L115,56.7Z" style="fill:rgb(58,220,254);fill-rule:nonzero;"/>
            <path d="M114.2,0L25.9,0C12.1,2.1 0,13.3 0,27.7L0,111.6L114.2,0Z" style="fill:rgb(58,220,254);fill-rule:nonzero;"/>
            <path d="M173,27.9L202.5,0L173,0L173,27.9Z" style="fill:rgb(58,220,254);fill-rule:nonzero;"/>
            <path d="M54.1,242.4L54.1,274.1L22.4,274.1L54.1,242.4ZM48.1,270.9L51.7,270.9L46.5,256.6L43.4,256.6L38.3,270.9L41.8,270.9L42.4,269.2L47.5,269.2L48.1,270.9ZM45,260.7L46.7,266.6L43.2,266.6L45,260.7Z" style="fill:rgb(58,220,254);"/>
            <path d="M446.2,164.6L446.2,132.8L477.9,132.8L446.2,164.6ZM449.1,135.8L449.1,150.2L455.1,150.2C459,150.2 459.8,147.7 459.8,146.2C459.8,144 458.1,142.9 457.2,142.9C458.3,142.6 459.7,141.5 459.7,139.7C459.7,138.2 458.9,135.8 455,135.8L449.1,135.8ZM452.4,144L454.5,144C456.1,144 456.5,145.1 456.5,145.8C456.5,146.6 456.1,147.6 454.5,147.6L452.4,147.6L452.4,144ZM454.4,141.7L452.4,141.7L452.4,138.3L454.4,138.3C456.1,138.3 456.4,139.4 456.4,140C456.4,140.7 456,141.7 454.4,141.7Z" style="fill:rgb(58,220,254);"/>
        </g>
        <g id="Display">
            <g id="LED-0-0" serif:id="LED 0,0">
                <path id="LED-Inactive" serif:id="LED Inactive" d="M164,115L164,131C164,132.104 163.104,133 162,133L156,133C154.896,133 154,132.104 154,131L154,115C154,113.896 154.896,113 156,113L162,113C163.104,113 164,113.896 164,115Z" style="fill:rgb(32,32,32);"/>
                <path id="LED-Box" serif:id="LED Box" d="M166,114L166,132C166,133.656 164.656,135 163,135L155,135C153.344,135 152,133.656 152,132L152,114C152,112.344 153.344,111 155,111L163,111C164.656,111 166,112.344 166,114Z" style="fill:rgb(255,127,127);fill-opacity:0;"/>
            </g>
            <g id="LED-0-1" serif:id="LED 0,1">
                <path id="LED-Inactive1" serif:id="LED Inactive" d="M210,115L210,131C210,132.104 209.104,133 208,133L202,133C200.896,133 200,132.104 200,131L200,115C200,113.896 200.896,113 202,113L208,113C209.104,113 210,113.896 210,115Z" style="fill:rgb(32,32,32);"/>
                <path id="LED-Box1" serif:id="LED Box" d="M212,114L212,132C212,133.656 210.656,135 209,135L201,135C199.344,135 198,133.656 198,132L198,114C198,112.344 199.344,111 201,111L209,111C210.656,111 212,112.344 212,114Z" style="fill:rgb(255,127,127);fill-opacity:0;"/>
            </g>
            <g id="LED-0-2" serif:id="LED 0,2" transform="matrix(1,0,0,1,45.9669,0)">
                <path id="LED-Inactive2" serif:id="LED Inactive" d="M210,115L210,131C210,132.104 209.104,133 208,133L202,133C200.896,133 200,132.104 200,131L200,115C200,113.896 200.896,113 202,113L208,113C209.104,113 210,113.896 210,115Z" style="fill:rgb(32,32,32);"/>
                <path id="LED-Box2" serif:id="LED Box" d="M212,114L212,132C212,133.656 210.656,135 209,135L201,135C199.344,135 198,133.656 198,132L198,114C198,112.344 199.344,111 201,111L209,111C210.656,111 212,112.344 212,114Z" style="fill:rgb(255,127,127);fill-opacity:0;"/>
            </g>
            <g id="LED-0-3" serif:id="LED 0,3" transform="matrix(1,0,0,1,91.9669,0)">
                <path id="LED-Inactive3" serif:id="LED Inactive" d="M210,115L210,131C210,132.104 209.104,133 208,133L202,133C200.896,133 200,132.104 200,131L200,115C200,113.896 200.896,113 202,113L208,113C209.104,113 210,113.896 210,115Z" style="fill:rgb(32,32,32);"/>
                <path id="LED-Box3" serif:id="LED Box" d="M212,114L212,132C212,133.656 210.656,135 209,135L201,135C199.344,135 198,133.656 198,132L198,114C198,112.344 199.344,111 201,111L209,111C210.656,111 212,112.344 212,114Z" style="fill:rgb(255,127,127);fill-opacity:0;"/>
            </g>
            <g id="LED-0-4" serif:id="LED 0,4" transform="matrix(1,0,0,1,137.967,0)">
                <path id="LED-Inactive4" serif:id="LED Inactive" d="M210,115L210,131C210,132.104 209.104,133 208,133L202,133C200.896,133 200,132.104 200,131L200,115C200,113.896 200.896,113 202,113L208,113C209.104,113 210,113.896 210,115Z" style="fill:rgb(32,32,32);"/>
                <path id="LED-Box4" serif:id="LED Box" d="M212,114L212,132C212,133.656 210.656,135 209,135L201,135C199.344,135 198,133.656 198,132L198,114C198,112.344 199.344,111 201,111L209,111C210.656,111 212,112.344 212,114Z" style="fill:rgb(255,127,127);fill-opacity:0;"/>
            </g>
            <g id="LED-1-0" serif:id="LED 1,0" transform="matrix(1,0,0,1,0,44)">
                <path id="LED-Inactive5" serif:id="LED Inactive" d="M164,115L164,131C164,132.104 163.104,133 162,133L156,133C154.896,133 154,132.104 154,131L154,115C154,113.896 154.896,113 156,113L162,113C163.104,113 164,113.896 164,115Z" style="fill:rgb(32,32,32);"/>
                <path id="LED-Box5" serif:id="LED Box" d="M166,114L166,132C166,133.656 164.656,135 163,135L155,135C153.344,135 152,133.656 152,132L152,114C152,112.344 153.344,111 155,111L163,111C164.656,111 166,112.344 166,114Z" style="fill:rgb(255,127,127);fill-opacity:0;"/>
            </g>
            <g id="LED-1-1" serif:id="LED 1,1" transform="matrix(1,0,0,1,0,44)">
                <path id="LED-Inactive6" serif:id="LED Inactive" d="M210,115L210,131C210,132.104 209.104,133 208,133L202,133C200.896,133 200,132.104 200,131L200,115C200,113.896 200.896,113 202,113L208,113C209.104,113 210,113.896 210,115Z" style="fill:rgb(32,32,32);"/>
                <path id="LED-Box6" serif:id="LED Box" d="M212,114L212,132C212,133.656 210.656,135 209,135L201,135C199.344,135 198,133.656 198,132L198,114C198,112.344 199.344,111 201,111L209,111C210.656,111 212,112.344 212,114Z" style="fill:rgb(255,127,127);fill-opacity:0;"/>
            </g>
            <g id="LED-1-2" serif:id="LED 1,2" transform="matrix(1,0,0,1,45.9669,44)">
                <path id="LED-Inactive7" serif:id="LED Inactive" d="M210,115L210,131C210,132.104 209.104,133 208,133L202,133C200.896,133 200,132.104 200,131L200,115C200,113.896 200.896,113 202,113L208,113C209.104,113 210,113.896 210,115Z" style="fill:rgb(32,32,32);"/>
                <path id="LED-Box7" serif:id="LED Box" d="M212,114L212,132C212,133.656 210.656,135 209,135L201,135C199.344,135 198,133.656 198,132L198,114C198,112.344 199.344,111 201,111L209,111C210.656,111 212,112.344 212,114Z" style="fill:rgb(255,127,127);fill-opacity:0;"/>
            </g>
            <g id="LED-1-3" serif:id="LED 1,3" transform="matrix(1,0,0,1,91.9669,44)">
                <path id="LED-Inactive8" serif:id="LED Inactive" d="M210,115L210,131C210,132.104 209.104,133 208,133L202,133C200.896,133 200,132.104 200,131L200,115C200,113.896 200.896,113 202,113L208,113C209.104,113 210,113.896 210,115Z" style="fill:rgb(32,32,32);"/>
                <path id="LED-Box8" serif:id="LED Box" d="M212,114L212,132C212,133.656 210.656,135 209,135L201,135C199.344,135 198,133.656 198,132L198,114C198,112.344 199.344,111 201,111L209,111C210.656,111 212,112.344 212,114Z" style="fill:rgb(255,127,127);fill-opacity:0;"/>
            </g>
            <g id="LED-1-4" serif:id="LED 1,4" transform="matrix(1,0,0,1,137.967,44)">
                <path id="LED-Inactive9" serif:id="LED Inactive" d="M210,115L210,131C210,132.104 209.104,133 208,133L202,133C200.896,133 200,132.104 200,131L200,115C200,113.896 200.896,113 202,113L208,113C209.104,113 210,113.896 210,115Z" style="fill:rgb(32,32,32);"/>
                <path id="LED-Box9" serif:id="LED Box" d="M212,114L212,132C212,133.656 210.656,135 209,135L201,135C199.344,135 198,133.656 198,132L198,114C198,112.344 199.344,111 201,111L209,111C210.656,111 212,112.344 212,114Z" style="fill:rgb(255,127,127);fill-opacity:0;"/>
            </g>
            <g id="LED-2-0" serif:id="LED 2,0" transform="matrix(1,0,0,1,0,88)">
                <path id="LED-Inactive10" serif:id="LED Inactive" d="M164,115L164,131C164,132.104 163.104,133 162,133L156,133C154.896,133 154,132.104 154,131L154,115C154,113.896 154.896,113 156,113L162,113C163.104,113 164,113.896 164,115Z" style="fill:rgb(32,32,32);"/>
                <path id="LED-Box10" serif:id="LED Box" d="M166,114L166,132C166,133.656 164.656,135 163,135L155,135C153.344,135 152,133.656 152,132L152,114C152,112.344 153.344,111 155,111L163,111C164.656,111 166,112.344 166,114Z" style="fill:rgb(255,127,127);fill-opacity:0;"/>
            </g>
            <g id="LED-2-1" serif:id="LED 2,1" transform="matrix(1,0,0,1,0,88)">
                <path id="LED-Inactive11" serif:id="LED Inactive" d="M210,115L210,131C210,132.104 209.104,133 208,133L202,133C200.896,133 200,132.104 200,131L200,115C200,113.896 200.896,113 202,113L208,113C209.104,113 210,113.896 210,115Z" style="fill:rgb(32,32,32);"/>
                <path id="LED-Box11" serif:id="LED Box" d="M212,114L212,132C212,133.656 210.656,135 209,135L201,135C199.344,135 198,133.656 198,132L198,114C198,112.344 199.344,111 201,111L209,111C210.656,111 212,112.344 212,114Z" style="fill:rgb(255,127,127);fill-opacity:0;"/>
            </g>
            <g id="LED-2-2" serif:id="LED 2,2" transform="matrix(1,0,0,1,45.9669,88)">
                <path id="LED-Inactive12" serif:id="LED Inactive" d="M210,115L210,131C210,132.104 209.104,133 208,133L202,133C200.896,133 200,132.104 200,131L200,115C200,113.896 200.896,113 202,113L208,113C209.104,113 210,113.896 210,115Z" style="fill:rgb(32,32,32);"/>
                <path id="LED-Box12" serif:id="LED Box" d="M212,114L212,132C212,133.656 210.656,135 209,135L201,135C199.344,135 198,133.656 198,132L198,114C198,112.344 199.344,111 201,111L209,111C210.656,111 212,112.344 212,114Z" style="fill:rgb(255,127,127);fill-opacity:0;"/>
            </g>
            <g id="LED-2-3" serif:id="LED 2,3" transform="matrix(1,0,0,1,91.9669,88)">
                <path id="LED-Inactive13" serif:id="LED Inactive" d="M210,115L210,131C210,132.104 209.104,133 208,133L202,133C200.896,133 200,132.104 200,131L200,115C200,113.896 200.896,113 202,113L208,113C209.104,113 210,113.896 210,115Z" style="fill:rgb(32,32,32);"/>
                <path id="LED-Box13" serif:id="LED Box" d="M212,114L212,132C212,133.656 210.656,135 209,135L201,135C199.344,135 198,133.656 198,132L198,114C198,112.344 199.344,111 201,111L209,111C210.656,111 212,112.344 212,114Z" style="fill:rgb(255,127,127);fill-opacity:0;"/>
            </g>
            <g id="LED-2-4" serif:id="LED 2,4" transform="matrix(1,0,0,1,137.967,88)">
                <path id="LED-Inactive14" serif:id="LED Inactive" d="M210,115L210,131C210,132.104 209.104,133 208,133L202,133C200.896,133 200,132.104 200,131L200,115C200,113.896 200.896,113 202,113L208,113C209.104,113 210,113.896 210,115Z" style="fill:rgb(32,32,32);"/>
                <path id="LED-Box14" serif:id="LED Box" d="M212,114L212,132C212,133.656 210.656,135 209,135L201,135C199.344,135 198,133.656 198,132L198,114C198,112.344 199.344,111 201,111L209,111C210.656,111 212,112.344 212,114Z" style="fill:rgb(255,127,127);fill-opacity:0;"/>
            </g>
            <g id="LED-3-0" serif:id="LED 3,0" transform="matrix(1,0,0,1,0,132)">
                <path id="LED-Inactive15" serif:id="LED Inactive" d="M164,115L164,131C164,132.104 163.104,133 162,133L156,133C154.896,133 154,132.104 154,131L154,115C154,113.896 154.896,113 156,113L162,113C163.104,113 164,113.896 164,115Z" style="fill:rgb(32,32,32);"/>
                <path id="LED-Box15" serif:id="LED Box" d="M166,114L166,132C166,133.656 164.656,135 163,135L155,135C153.344,135 152,133.656 152,132L152,114C152,112.344 153.344,111 155,111L163,111C164.656,111 166,112.344 166,114Z" style="fill:rgb(255,127,127);fill-opacity:0;"/>
            </g>
            <g id="LED-3-1" serif:id="LED 3,1" transform="matrix(1,0,0,1,0,132)">
                <path id="LED-Inactive16" serif:id="LED Inactive" d="M210,115L210,131C210,132.104 209.104,133 208,133L202,133C200.896,133 200,132.104 200,131L200,115C200,113.896 200.896,113 202,113L208,113C209.104,113 210,113.896 210,115Z" style="fill:rgb(32,32,32);"/>
                <path id="LED-Box16" serif:id="LED Box" d="M212,114L212,132C212,133.656 210.656,135 209,135L201,135C199.344,135 198,133.656 198,132L198,114C198,112.344 199.344,111 201,111L209,111C210.656,111 212,112.344 212,114Z" style="fill:rgb(255,127,127);fill-opacity:0;"/>
            </g>
            <g id="LED-3-2" serif:id="LED 3,2" transform="matrix(1,0,0,1,45.9669,132)">
                <path id="LED-Inactive17" serif:id="LED Inactive" d="M210,115L210,131C210,132.104 209.104,133 208,133L202,133C200.896,133 200,132.104 200,131L200,115C200,113.896 200.896,113 202,113L208,113C209.104,113 210,113.896 210,115Z" style="fill:rgb(32,32,32);"/>
                <path id="LED-Box17" serif:id="LED Box" d="M212,114L212,132C212,133.656 210.656,135 209,135L201,135C199.344,135 198,133.656 198,132L198,114C198,112.344 199.344,111 201,111L209,111C210.656,111 212,112.344 212,114Z" style="fill:rgb(255,127,127);fill-opacity:0;"/>
            </g>
            <g id="LED-3-3" serif:id="LED 3,3" transform="matrix(1,0,0,1,91.9669,132)">
                <path id="LED-Inactive18" serif:id="LED Inactive" d="M210,115L210,131C210,132.104 209.104,133 208,133L202,133C200.896,133 200,132.104 200,131L200,115C200,113.896 200.896,113 202,113L208,113C209.104,113 210,113.896 210,115Z" style="fill:rgb(32,32,32);"/>
                <path id="LED-Box18" serif:id="LED Box" d="M212,114L212,132C212,133.656 210.656,135 209,135L201,135C199.344,135 198,133.656 198,132L198,114C198,112.344 199.344,111 201,111L209,111C210.656,111 212,112.344 212,114Z" style="fill:rgb(255,127,127);fill-opacity:0;"/>
            </g>
            <g id="LED-3-4" serif:id="LED 3,4" transform="matrix(1,0,0,1,137.967,132)">
                <path id="LED-Inactive19" serif:id="LED Inactive" d="M210,115L210,131C210,132.104 209.104,133 208,133L202,133C200.896,133 200,132.104 200,131L200,115C200,113.896 200.896,113 202,113L208,113C209.104,113 210,113.896 210,115Z" style="fill:rgb(32,32,32);"/>
                <path id="LED-Box19" serif:id="LED Box" d="M212,114L212,132C212,133.656 210.656,135 209,135L201,135C199.344,135 198,133.656 198,132L198,114C198,112.344 199.344,111 201,111L209,111C210.656,111 212,112.344 212,114Z" style="fill:rgb(255,127,127);fill-opacity:0;"/>
            </g>
            <g id="LED-4-0" serif:id="LED 4,0" transform="matrix(1,0,0,1,0,176)">
                <path id="LED-Inactive20" serif:id="LED Inactive" d="M164,115L164,131C164,132.104 163.104,133 162,133L156,133C154.896,133 154,132.104 154,131L154,115C154,113.896 154.896,113 156,113L162,113C163.104,113 164,113.896 164,115Z" style="fill:rgb(32,32,32);"/>
                <path id="LED-Box20" serif:id="LED Box" d="M166,114L166,132C166,133.656 164.656,135 163,135L155,135C153.344,135 152,133.656 152,132L152,114C152,112.344 153.344,111 155,111L163,111C164.656,111 166,112.344 166,114Z" style="fill:rgb(255,127,127);fill-opacity:0;"/>
            </g>
            <g id="LED-4-1" serif:id="LED 4,1" transform="matrix(1,0,0,1,0,176)">
                <path id="LED-Inactive21" serif:id="LED Inactive" d="M210,115L210,131C210,132.104 209.104,133 208,133L202,133C200.896,133 200,132.104 200,131L200,115C200,113.896 200.896,113 202,113L208,113C209.104,113 210,113.896 210,115Z" style="fill:rgb(32,32,32);"/>
                <path id="LED-Box21" serif:id="LED Box" d="M212,114L212,132C212,133.656 210.656,135 209,135L201,135C199.344,135 198,133.656 198,132L198,114C198,112.344 199.344,111 201,111L209,111C210.656,111 212,112.344 212,114Z" style="fill:rgb(255,127,127);fill-opacity:0;"/>
            </g>
            <g id="LED-4-2" serif:id="LED 4,2" transform="matrix(1,0,0,1,45.9669,176)">
                <path id="LED-Inactive22" serif:id="LED Inactive" d="M210,115L210,131C210,132.104 209.104,133 208,133L202,133C200.896,133 200,132.104 200,131L200,115C200,113.896 200.896,113 202,113L208,113C209.104,113 210,113.896 210,115Z" style="fill:rgb(32,32,32);"/>
                <path id="LED-Box22" serif:id="LED Box" d="M212,114L212,132C212,133.656 210.656,135 209,135L201,135C199.344,135 198,133.656 198,132L198,114C198,112.344 199.344,111 201,111L209,111C210.656,111 212,112.344 212,114Z" style="fill:rgb(255,127,127);fill-opacity:0;"/>
            </g>
            <g id="LED-4-3" serif:id="LED 4,3" transform="matrix(1,0,0,1,91.9669,176)">
                <path id="LED-Inactive23" serif:id="LED Inactive" d="M210,115L210,131C210,132.104 209.104,133 208,133L202,133C200.896,133 200,132.104 200,131L200,115C200,113.896 200.896,113 202,113L208,113C209.104,113 210,113.896 210,115Z" style="fill:rgb(32,32,32);"/>
                <path id="LED-Box23" serif:id="LED Box" d="M212,114L212,132C212,133.656 210.656,135 209,135L201,135C199.344,135 198,133.656 198,132L198,114C198,112.344 199.344,111 201,111L209,111C210.656,111 212,112.344 212,114Z" style="fill:rgb(255,127,127);fill-opacity:0;"/>
            </g>
            <g id="LED-4-4" serif:id="LED 4,4" transform="matrix(1,0,0,1,137.967,176)">
                <path id="LED-Inactive24" serif:id="LED Inactive" d="M210,115L210,131C210,132.104 209.104,133 208,133L202,133C200.896,133 200,132.104 200,131L200,115C200,113.896 200.896,113 202,113L208,113C209.104,113 210,113.896 210,115Z" style="fill:rgb(32,32,32);"/>
                <path id="LED-Box24" serif:id="LED Box" d="M212,114L212,132C212,133.656 210.656,135 209,135L201,135C199.344,135 198,133.656 198,132L198,114C198,112.344 199.344,111 201,111L209,111C210.656,111 212,112.344 212,114Z" style="fill:rgb(255,127,127);fill-opacity:0;"/>
            </g>
        </g>
        <g id="Logo" transform="matrix(1,0,0,1,0,-11)">
            <ellipse cx="251" cy="75" rx="75" ry="35" style="fill:none;"/>
            <g>
                <path d="M269.9,50.2C284,50.3 294.5,61 294.5,75C294.5,89.1 283.9,99.7 269.7,99.7L230.1,99.7C216.2,99.4 205.8,88.9 205.8,75C205.8,60.9 216.3,50.3 230.4,50.2L269.9,50.2ZM269.7,89.2C277.5,89.2 283.9,82.9 283.9,75C283.9,67.2 277.5,60.8 269.7,60.8L230.6,60.8C222.8,60.8 216.4,67.2 216.4,75C216.4,82.8 222.7,89.1 230.4,89.2L269.7,89.2ZM269.7,80.3C266.8,80.3 264.4,77.9 264.4,75C264.4,72.1 266.8,69.7 269.7,69.7C272.6,69.7 275,72.1 275,75C275,77.9 272.6,80.3 269.7,80.3ZM230.6,69.7C233.5,69.7 235.9,72.1 235.9,75C235.9,77.9 233.5,80.3 230.6,80.3C227.7,80.3 225.3,77.9 225.3,75C225.3,72.1 227.7,69.7 230.6,69.7Z" style="fill:rgb(212,175,55);"/>
            </g>
        </g>
        <g id="A-Button">
            <path d="M82.1,180.4L82.1,228.6C82.1,230.808 80.308,232.6 78.1,232.6L29.9,232.6C27.692,232.6 25.9,230.808 25.9,228.6L25.9,180.4C25.9,178.192 27.692,176.4 29.9,176.4L78.1,176.4C80.308,176.4 82.1,178.192 82.1,180.4Z" style="fill:rgb(151,151,151);"/>
            <circle cx="35.9" cy="186.4" r="6" style="fill:rgb(84,84,84);"/>
            <circle cx="35.9" cy="222.6" r="6" style="fill:rgb(84,84,84);"/>
            <circle cx="72.1" cy="222.6" r="6" style="fill:rgb(84,84,84);"/>
            <circle cx="72.1" cy="186.4" r="6" style="fill:rgb(84,84,84);"/>
            <path id="A-Button-Pad" d="M69.7,203.5C69.7,212.2 62.7,219.2 54,219.2C45.3,219.2 38.3,212.2 38.3,203.5C38.3,194.8 45.3,187.8 54,187.8C62.7,187.8 69.7,194.9 69.7,203.5" style="fill:rgb(17,17,17);fill-rule:nonzero;"/>
        </g>
        <g id="B-Button">
            <path d="M474.3,180.4L474.3,228.6C474.3,230.808 472.508,232.6 470.3,232.6L422.1,232.6C419.892,232.6 418.1,230.808 418.1,228.6L418.1,180.4C418.1,178.192 419.892,176.4 422.1,176.4L470.3,176.4C472.508,176.4 474.3,178.192 474.3,180.4Z" style="fill:rgb(151,151,151);"/>
            <circle cx="428.1" cy="186.4" r="6" style="fill:rgb(84,84,84);"/>
            <circle cx="428.1" cy="222.6" r="6" style="fill:rgb(84,84,84);"/>
            <circle cx="464.3" cy="222.6" r="6" style="fill:rgb(84,84,84);"/>
            <circle cx="464.3" cy="186.4" r="6" style="fill:rgb(84,84,84);"/>
            <path id="B-Button-Pad" d="M461.9,203.5C461.9,212.2 454.9,219.2 446.2,219.2C437.5,219.2 430.5,212.2 430.5,203.5C430.5,194.8 437.5,187.8 446.2,187.8C454.9,187.8 461.9,194.9 461.9,203.5" style="fill:rgb(17,17,17);fill-rule:nonzero;"/>
        </g>
        <g id="Connector">
            <path d="M0,357.7L0,376.9C0,387.7 6.2,397.1 14.4,402.1L14.4,357.7L0,357.7Z" style="fill:rgb(212,175,55);fill-rule:nonzero;"/>
            <g>
                <path d="M16.5,341.2C16.5,328.1 27.2,317.6 41.3,317.6C54.4,317.6 65,328.2 65,341.2L65,406L57,406C58,397 49,398 49,398L33,398C23.636,397.458 25,406 25,406C21,406 19,405 16.4,403.2L16.4,342.5C16.4,342.1 16.5,341.6 16.5,341.2ZM21.2,341.6C21.2,352.2 29.9,360.9 40.5,360.9C51.2,360.9 59.8,352.3 59.8,341.6C59.8,331 51.2,322.3 40.5,322.3C29.9,322.3 21.2,330.9 21.2,341.6Z" style="fill:rgb(212,175,55);"/>
                <g transform="matrix(1,0,0,1,-15.5729,-3.09019)">
                    <g transform="matrix(21.3333,0,0,21.3333,62.7793,389.953)">
                    </g>
                    <text x="49.702px" y="389.953px" style="font-family:'GTWalsheim-Bold', 'GT Walsheim';font-weight:600;font-size:21.333px;fill:rgb(17,17,17);">0</text>
                </g>
            </g>
            <g transform="matrix(1,0,0,0.986,0.666935,4.9938)">
                <rect x="66.7" y="356.7" width="10" height="50" style="fill:rgb(212,175,55);"/>
            </g>
            <g transform="matrix(1,0,0,0.986,0.666935,4.9938)">
                <rect x="79.1" y="356.7" width="10" height="50" style="fill:rgb(212,175,55);"/>
            </g>
            <g transform="matrix(1,0,0,0.986,0.666935,4.9938)">
                <rect x="91.4" y="356.7" width="10" height="50" style="fill:rgb(212,175,55);"/>
            </g>
            <g transform="matrix(1,0,0,0.986,0.666935,4.9938)">
                <rect x="103.7" y="356.7" width="10" height="50" style="fill:rgb(212,175,55);"/>
            </g>
            <g transform="matrix(1,0,0,1,1,0)">
                <path d="M139.1,317.3C151.9,317.3 162.2,327.7 162,340.4L162,406L155,406C156,397 147,398 147,398L130,398C121,397 122,406 122,406L116,406L116,340.4C117,327.6 126.3,317.3 139.1,317.3ZM139.3,360.1C150,360.1 158.6,351.5 158.6,340.8C158.6,330.2 150,321.5 139.3,321.5C128.6,321.5 120,330.1 120,340.8C120,351.5 128.6,360.1 139.3,360.1ZM135.901,374.1L135.801,374.1L135.801,376.4L138.801,376.4L138.801,385.9L142.201,385.9L142.201,371.6L139.301,371.6C139.301,373.3 138.701,374.1 135.901,374.1Z" style="fill:rgb(212,175,55);"/>
            </g>
            <g transform="matrix(1,0,0,0.986,1,4.9938)">
                <rect x="164.3" y="356.7" width="10" height="50" style="fill:rgb(212,175,55);"/>
            </g>
            <g transform="matrix(1,0,0,0.986,1,4.9938)">
                <rect x="176.6" y="356.7" width="10" height="50" style="fill:rgb(212,175,55);"/>
            </g>
            <g transform="matrix(1,0,0,0.986,1,4.9938)">
                <rect x="188.9" y="356.7" width="10" height="50" style="fill:rgb(212,175,55);"/>
            </g>
            <g transform="matrix(1,0,0,0.986,1,4.9938)">
                <rect x="201.3" y="356.7" width="10" height="50" style="fill:rgb(212,175,55);"/>
            </g>
            <g transform="matrix(1,0,0,0.986,1,4.9938)">
                <rect x="213.6" y="356.7" width="10" height="50" style="fill:rgb(212,175,55);"/>
            </g>
            <g transform="matrix(1,0,0,1,1,0)">
                <path d="M249,317.3C261.8,317.3 272.1,327.7 271.9,340.4L271.9,406L264.9,406C265.9,397 256.9,398 256.9,398L239.9,398C230.9,397 231.9,406 231.9,406L225.9,406L225.9,340.4C226.9,327.6 236.2,317.3 249,317.3ZM247.701,378.5C245.501,379.9 243.901,381.2 243.801,385.9L253.801,385.9L253.801,383.2L247.701,383.2C247.701,382.1 248.201,381.6 250.201,380.3C251.701,379.5 254.001,378 254.001,375.6C254.001,372.6 251.701,371.3 249.101,371.3C245.801,371.3 244.001,373.3 244.001,375.9L247.301,375.9C247.301,374.4 248.101,373.8 249.101,373.8C250.001,373.8 250.701,374.3 250.701,375.4C250.701,376.8 249.401,377.5 247.701,378.5ZM249.4,360.1C260.1,360.1 268.7,351.5 268.7,340.8C268.7,330.2 260.1,321.5 249.4,321.5C238.7,321.5 230.1,330.1 230.1,340.8C230.1,351.5 238.7,360.1 249.4,360.1Z" style="fill:rgb(212,175,55);"/>
            </g>
            <g transform="matrix(1,0,0,0.986,0,4.9938)">
                <rect x="275.2" y="356.7" width="10" height="50" style="fill:rgb(212,175,55);"/>
            </g>
            <g transform="matrix(1,0,0,0.986,0,4.9938)">
                <rect x="287.5" y="356.7" width="10" height="50" style="fill:rgb(212,175,55);"/>
            </g>
            <g transform="matrix(1,0,0,0.986,0,4.9938)">
                <rect x="299.8" y="356.7" width="10" height="50" style="fill:rgb(212,175,55);"/>
            </g>
            <g transform="matrix(1,0,0,0.986,0,4.9938)">
                <rect x="312.1" y="356.7" width="10" height="50" style="fill:rgb(212,175,55);"/>
            </g>
            <g transform="matrix(1,0,0,0.986,0,4.9938)">
                <rect x="324.5" y="356.7" width="10" height="50" style="fill:rgb(212,175,55);"/>
            </g>
            <g transform="matrix(1,0,0,0.985949,0.466935,5.01199)">
                <rect x="385.1" y="356.7" width="10" height="50" style="fill:rgb(212,175,55);"/>
            </g>
            <g transform="matrix(1,0,0,0.986034,0.466935,4.98159)">
                <rect x="397.4" y="356.7" width="10" height="50" style="fill:rgb(212,175,55);"/>
            </g>
            <g transform="matrix(1,0,0,0.986048,0.466935,4.9766)">
                <rect x="409.7" y="356.7" width="10" height="50" style="fill:rgb(212,175,55);"/>
            </g>
            <g transform="matrix(1,0,0,0.986007,0.466935,4.9913)">
                <rect x="422" y="356.7" width="10" height="50" style="fill:rgb(212,175,55);"/>
            </g>
            <path d="M483.6,402.165C488.375,398.532 498,388.351 498,376.9L498,357.7L483.6,357.7L483.6,402.165Z" style="fill:rgb(212,175,55);fill-rule:nonzero;"/>
            <path d="M359.9,317.3C372.7,317.3 383,327.7 383.8,340.4L383.8,406L376.8,406C377.8,397 368.8,398 368.8,398L351.8,398C342.959,397.385 343.986,405.993 343.986,405.993L336.8,406L336.8,340.4C337.8,327.6 347.1,317.3 359.9,317.3ZM360,360.1C370.7,360.1 379.3,351.5 379.3,340.8C379.3,330.2 370.7,321.5 360,321.5C349.3,321.5 340.7,330.1 340.7,340.8C340.7,351.5 349.3,360.1 360,360.1ZM367.55,385.9L372.65,371.6L369.05,371.6L365.95,381.7L362.85,371.6L359.35,371.6L364.45,385.9L367.55,385.9ZM351.15,381.1L347.95,381.1C347.95,384.1 349.95,386.2 353.45,386.2C356.25,386.2 358.65,384.6 358.65,381.9C358.65,380 357.65,378.9 356.35,378.4C357.45,378 358.45,376.8 358.45,375.2C358.45,372.5 356.05,371.2 353.45,371.2C349.85,371.2 348.35,373.4 348.35,375.8L351.65,375.8C351.65,374.5 352.05,373.7 353.45,373.7C354.35,373.7 355.05,374.2 355.05,375.3C355.05,376.4 354.65,377.1 353.15,377.1L351.85,377.1L351.85,379.7L353.15,379.7C354.65,379.7 355.25,380.5 355.25,381.7C355.25,382.7 354.55,383.6 353.35,383.6C352.05,383.6 351.15,382.7 351.15,381.1Z" style="fill:rgb(212,175,55);"/>
            <path d="M458,317.6C471,317.6 481.6,328.1 481,341L481,403.925C479.893,404.975 477.298,405.961 476,406L474.4,406C475.4,397 466.4,398 466.4,398L449.4,398C440.4,397 441.4,406 441.4,406L434.4,406L434.4,341.2C434.4,328.2 445,317.6 458,317.6ZM461.162,381.2L455.962,371.9L452.462,371.9L452.462,386.2L455.762,386.2L455.762,377L460.962,386.2L464.462,386.2L464.462,371.9L461.162,371.9L461.162,381.2ZM457.8,360.9C468.4,360.9 477.1,352.2 477.1,341.6C477.1,331 468.5,322.3 457.8,322.3C447.1,322.3 438.5,330.9 438.5,341.6C438.5,352.3 447.1,360.9 457.8,360.9ZM472.462,371.9L472.462,372L467.162,372L467.162,386.3L472.462,386.3C477.262,386.3 479.962,382.8 479.962,379.1C479.962,375.4 477.262,371.9 472.462,371.9ZM470.562,374.7L472.362,374.7C474.962,374.7 476.562,376.8 476.562,379C476.562,381.2 475.062,383.3 472.362,383.3L470.562,383.3L470.562,374.7ZM444.162,378.6L444.162,381.1L446.662,381.1C446.462,382.6 445.262,383.8 443.262,383.8C440.262,383.8 438.862,381.6 438.862,379.1C438.862,376.7 440.262,374.4 442.962,374.4C444.662,374.4 445.862,375.5 446.062,376.6L449.562,376.6C449.362,373.9 446.762,371.6 442.962,371.6C438.262,371.6 435.462,375.2 435.462,379.1C435.462,383.1 438.162,386.6 442.962,386.6C447.062,386.6 449.462,384.4 450.062,381.1L451.562,381.1L451.562,378.6L444.162,378.6Z" style="fill:rgb(212,175,55);"/>
        </g>
        <g id="Microphone" transform="matrix(1,0,0,1,5,-4)">
            <path id="Mic-Inactive" serif:id="Mic Inactive" d="M352.852,71C351.315,71 350.07,72.248 350.07,73.784L350.07,79.056C350.07,80.594 351.316,81.838 352.852,81.838C354.387,81.838 355.634,80.593 355.634,79.056L355.634,73.784C355.634,72.248 354.387,71 352.852,71ZM346.743,79.981C346.743,82.84 348.853,85.062 351.501,85.658L351.501,87.095L348.448,87.095L348.448,89.329L357.366,89.329L357.366,87.095L354.306,87.095L354.306,85.658C356.954,85.064 359.071,82.842 359.071,79.981L357.057,79.981C357.057,82.174 355.168,83.81 352.905,83.81C350.64,83.81 348.757,82.173 348.757,79.981L346.743,79.981Z" style="fill:rgb(32,32,32);fill-rule:nonzero;"/>
        </g>
        <g transform="matrix(1,0,0,1,6.96694,-1)">
            <circle cx="336" cy="86" r="3" style="stroke:rgb(212,175,55);stroke-width:1px;"/>
        </g>
    </g>
</svg>
